<?xml version="1.0" encoding="UTF-8" standalone="no"?>
<!DOCTYPE svg PUBLIC "-//W3C//DTD SVG 1.1//EN"
 "http://www.w3.org/Graphics/SVG/1.1/DTD/svg11.dtd">
<!-- Generated by graphviz version 5.0.0 (20220707.1540)
 -->
<!-- Title: dependencies Pages: 1 -->
<svg width="526pt" height="174pt"
 viewBox="0.00 0.00 526.00 173.80" xmlns="http://www.w3.org/2000/svg" xmlns:xlink="http://www.w3.org/1999/xlink">
<g id="graph0" class="graph" transform="scale(1 1) rotate(0) translate(4 169.8)">
<title>dependencies</title>
<polygon fill="white" stroke="transparent" points="-4,4 -4,-169.8 522,-169.8 522,4 -4,4"/>
<text text-anchor="middle" x="259" y="-8.2" font-family="sans-serif" font-size="14.00">dependencies</text>
<g id="clust1" class="cluster">
<title>cluster_CoreModule</title>
<polygon fill="none" stroke="black" stroke-dasharray="1,5" points="8,-32.8 8,-157.8 510,-157.8 510,-32.8 8,-32.8"/>
</g>
<g id="clust3" class="cluster">
<title>cluster_CoreModule_imports</title>
<polygon fill="none" stroke="black" points="390,-40.8 390,-92.8 502,-92.8 502,-40.8 390,-40.8"/>
</g>
<g id="clust6" class="cluster">
<title>cluster_CoreModule_providers</title>
<polygon fill="none" stroke="black" points="16,-40.8 16,-92.8 382,-92.8 382,-40.8 16,-40.8"/>
</g>
<!-- FormsModule -->
<g id="node1" class="node">
<title>FormsModule</title>
<polygon fill="#8dd3c7" stroke="black" points="493.84,-84.8 490.84,-88.8 469.84,-88.8 466.84,-84.8 398.16,-84.8 398.16,-48.8 493.84,-48.8 493.84,-84.8"/>
<text text-anchor="middle" x="446" y="-62.6" font-family="Times,serif" font-size="14.00">FormsModule</text>
</g>
<!-- CoreModule -->
<g id="node2" class="node">
<title>CoreModule</title>
<polygon fill="#8dd3c7" stroke="black" points="350.27,-149.8 347.27,-153.8 326.27,-153.8 323.27,-149.8 263.73,-149.8 263.73,-113.8 350.27,-113.8 350.27,-149.8"/>
<text text-anchor="middle" x="307" y="-127.6" font-family="Times,serif" font-size="14.00">CoreModule</text>
</g>
<!-- FormsModule&#45;&gt;CoreModule -->
<g id="edge1" class="edge">
<title>FormsModule&#45;&gt;CoreModule</title>
<path fill="none" stroke="black" d="M446,-84.91C446,-104.14 446,-131.8 446,-131.8 446,-131.8 360.6,-131.8 360.6,-131.8"/>
<polygon fill="black" stroke="black" points="360.6,-128.3 350.6,-131.8 360.6,-135.3 360.6,-128.3"/>
</g>
<!-- JwtInterceptor -->
<g id="node3" class="node">
<title>JwtInterceptor</title>
<ellipse fill="#fdb462" stroke="black" cx="307" cy="-66.8" rx="66.62" ry="18"/>
<text text-anchor="middle" x="307" y="-62.6" font-family="Times,serif" font-size="14.00">JwtInterceptor</text>
</g>
<!-- JwtInterceptor&#45;&gt;CoreModule -->
<g id="edge2" class="edge">
<title>JwtInterceptor&#45;&gt;CoreModule</title>
<path fill="none" stroke="black" d="M307,-84.91C307,-84.91 307,-103.79 307,-103.79"/>
<polygon fill="black" stroke="black" points="303.5,-103.79 307,-113.79 310.5,-103.79 303.5,-103.79"/>
</g>
<!-- ServerErrorInterceptor -->
<g id="node4" class="node">
<title>ServerErrorInterceptor</title>
<ellipse fill="#fdb462" stroke="black" cx="123" cy="-66.8" rx="98.94" ry="18"/>
<text text-anchor="middle" x="123" y="-62.6" font-family="Times,serif" font-size="14.00">ServerErrorInterceptor</text>
</g>
<!-- ServerErrorInterceptor&#45;&gt;CoreModule -->
<g id="edge3" class="edge">
<title>ServerErrorInterceptor&#45;&gt;CoreModule</title>
<path fill="none" stroke="black" d="M123,-84.91C123,-104.14 123,-131.8 123,-131.8 123,-131.8 253.39,-131.8 253.39,-131.8"/>
<polygon fill="black" stroke="black" points="253.39,-135.3 263.39,-131.8 253.39,-128.3 253.39,-135.3"/>
</g>
</g>
</svg>
