<?xml version="1.0" encoding="UTF-8" standalone="no"?>
<!DOCTYPE svg PUBLIC "-//W3C//DTD SVG 1.1//EN"
 "http://www.w3.org/Graphics/SVG/1.1/DTD/svg11.dtd">
<!-- Generated by graphviz version 5.0.0 (20220707.1540)
 -->
<!-- Title: dependencies Pages: 1 -->
<svg width="2037pt" height="174pt"
 viewBox="0.00 0.00 2037.00 173.80" xmlns="http://www.w3.org/2000/svg" xmlns:xlink="http://www.w3.org/1999/xlink">
<g id="graph0" class="graph" transform="scale(1 1) rotate(0) translate(4 169.8)">
<title>dependencies</title>
<polygon fill="white" stroke="transparent" points="-4,4 -4,-169.8 2033,-169.8 2033,4 -4,4"/>
<text text-anchor="middle" x="1014.5" y="-8.2" font-family="sans-serif" font-size="14.00">dependencies</text>
<g id="clust1" class="cluster">
<title>cluster_DashboardModule</title>
<polygon fill="none" stroke="black" stroke-dasharray="1,5" points="8,-32.8 8,-157.8 2021,-157.8 2021,-32.8 8,-32.8"/>
</g>
<g id="clust2" class="cluster">
<title>cluster_DashboardModule_declarations</title>
<polygon fill="none" stroke="black" points="1089,-40.8 1089,-92.8 2013,-92.8 2013,-40.8 1089,-40.8"/>
</g>
<g id="clust9" class="cluster">
<title>cluster_DashboardModule_imports</title>
<polygon fill="none" stroke="black" points="16,-40.8 16,-92.8 1081,-92.8 1081,-40.8 16,-40.8"/>
</g>
<!-- CategoriesListComponent -->
<g id="node1" class="node">
<title>CategoriesListComponent</title>
<polygon fill="#ffffb3" stroke="black" points="2005.48,-84.8 1842.52,-84.8 1842.52,-48.8 2005.48,-48.8 2005.48,-84.8"/>
<text text-anchor="middle" x="1924" y="-62.6" font-family="Times,serif" font-size="14.00">CategoriesListComponent</text>
</g>
<!-- DashboardModule -->
<g id="node7" class="node">
<title>DashboardModule</title>
<polygon fill="#8dd3c7" stroke="black" points="1038.2,-149.8 1035.2,-153.8 1014.2,-153.8 1011.2,-149.8 917.8,-149.8 917.8,-113.8 1038.2,-113.8 1038.2,-149.8"/>
<text text-anchor="middle" x="978" y="-127.6" font-family="Times,serif" font-size="14.00">DashboardModule</text>
</g>
<!-- CategoriesListComponent&#45;&gt;DashboardModule -->
<g id="edge1" class="edge">
<title>CategoriesListComponent&#45;&gt;DashboardModule</title>
<path fill="none" stroke="black" d="M1924,-84.89C1924,-107.93 1924,-144.8 1924,-144.8 1924,-144.8 1048.25,-144.8 1048.25,-144.8"/>
<polygon fill="black" stroke="black" points="1048.25,-141.3 1038.25,-144.8 1048.25,-148.3 1048.25,-141.3"/>
</g>
<!-- CompaniesComponent -->
<g id="node2" class="node">
<title>CompaniesComponent</title>
<polygon fill="#ffffb3" stroke="black" points="1824.32,-84.8 1679.68,-84.8 1679.68,-48.8 1824.32,-48.8 1824.32,-84.8"/>
<text text-anchor="middle" x="1752" y="-62.6" font-family="Times,serif" font-size="14.00">CompaniesComponent</text>
</g>
<!-- CompaniesComponent&#45;&gt;DashboardModule -->
<g id="edge2" class="edge">
<title>CompaniesComponent&#45;&gt;DashboardModule</title>
<path fill="none" stroke="black" d="M1752,-84.84C1752,-106.46 1752,-139.8 1752,-139.8 1752,-139.8 1048.41,-139.8 1048.41,-139.8"/>
<polygon fill="black" stroke="black" points="1048.41,-136.3 1038.41,-139.8 1048.41,-143.3 1048.41,-136.3"/>
</g>
<!-- DashboardComponent -->
<g id="node3" class="node">
<title>DashboardComponent</title>
<polygon fill="#ffffb3" stroke="black" points="1661.98,-84.8 1520.02,-84.8 1520.02,-48.8 1661.98,-48.8 1661.98,-84.8"/>
<text text-anchor="middle" x="1591" y="-62.6" font-family="Times,serif" font-size="14.00">DashboardComponent</text>
</g>
<!-- DashboardComponent&#45;&gt;DashboardModule -->
<g id="edge3" class="edge">
<title>DashboardComponent&#45;&gt;DashboardModule</title>
<path fill="none" stroke="black" d="M1591,-85.02C1591,-105.17 1591,-134.8 1591,-134.8 1591,-134.8 1048.17,-134.8 1048.17,-134.8"/>
<polygon fill="black" stroke="black" points="1048.17,-131.3 1038.17,-134.8 1048.17,-138.3 1048.17,-131.3"/>
</g>
<!-- HomeComponent -->
<g id="node4" class="node">
<title>HomeComponent</title>
<polygon fill="#ffffb3" stroke="black" points="1501.55,-84.8 1386.45,-84.8 1386.45,-48.8 1501.55,-48.8 1501.55,-84.8"/>
<text text-anchor="middle" x="1444" y="-62.6" font-family="Times,serif" font-size="14.00">HomeComponent</text>
</g>
<!-- HomeComponent&#45;&gt;DashboardModule -->
<g id="edge4" class="edge">
<title>HomeComponent&#45;&gt;DashboardModule</title>
<path fill="none" stroke="black" d="M1444,-85.02C1444,-103.63 1444,-129.8 1444,-129.8 1444,-129.8 1048.44,-129.8 1048.44,-129.8"/>
<polygon fill="black" stroke="black" points="1048.44,-126.3 1038.44,-129.8 1048.44,-133.3 1048.44,-126.3"/>
</g>
<!-- ProfileComponent -->
<g id="node5" class="node">
<title>ProfileComponent</title>
<polygon fill="#ffffb3" stroke="black" points="1368.94,-84.8 1249.06,-84.8 1249.06,-48.8 1368.94,-48.8 1368.94,-84.8"/>
<text text-anchor="middle" x="1309" y="-62.6" font-family="Times,serif" font-size="14.00">ProfileComponent</text>
</g>
<!-- ProfileComponent&#45;&gt;DashboardModule -->
<g id="edge5" class="edge">
<title>ProfileComponent&#45;&gt;DashboardModule</title>
<path fill="none" stroke="black" d="M1309,-84.83C1309,-101.86 1309,-124.8 1309,-124.8 1309,-124.8 1048.33,-124.8 1048.33,-124.8"/>
<polygon fill="black" stroke="black" points="1048.33,-121.3 1038.33,-124.8 1048.33,-128.3 1048.33,-121.3"/>
</g>
<!-- UsersListComponent -->
<g id="node6" class="node">
<title>UsersListComponent</title>
<polygon fill="#ffffb3" stroke="black" points="1231.49,-84.8 1096.51,-84.8 1096.51,-48.8 1231.49,-48.8 1231.49,-84.8"/>
<text text-anchor="middle" x="1164" y="-62.6" font-family="Times,serif" font-size="14.00">UsersListComponent</text>
</g>
<!-- UsersListComponent&#45;&gt;DashboardModule -->
<g id="edge6" class="edge">
<title>UsersListComponent&#45;&gt;DashboardModule</title>
<path fill="none" stroke="black" d="M1164,-85.04C1164,-100.37 1164,-119.8 1164,-119.8 1164,-119.8 1048.13,-119.8 1048.13,-119.8"/>
<polygon fill="black" stroke="black" points="1048.13,-116.3 1038.13,-119.8 1048.13,-123.3 1048.13,-116.3"/>
</g>
<!-- CustomMultiSelectComponent -->
<g id="node8" class="node">
<title>CustomMultiSelectComponent</title>
<polygon fill="#8dd3c7" stroke="black" points="1073.22,-84.8 1070.22,-88.8 1049.22,-88.8 1046.22,-84.8 882.78,-84.8 882.78,-48.8 1073.22,-48.8 1073.22,-84.8"/>
<text text-anchor="middle" x="978" y="-62.6" font-family="Times,serif" font-size="14.00">CustomMultiSelectComponent</text>
</g>
<!-- CustomMultiSelectComponent&#45;&gt;DashboardModule -->
<g id="edge7" class="edge">
<title>CustomMultiSelectComponent&#45;&gt;DashboardModule</title>
<path fill="none" stroke="black" d="M978,-84.91C978,-84.91 978,-103.79 978,-103.79"/>
<polygon fill="black" stroke="black" points="974.5,-103.79 978,-113.79 981.5,-103.79 974.5,-103.79"/>
</g>
<!-- DashboardRoutingModule -->
<g id="node9" class="node">
<title>DashboardRoutingModule</title>
<polygon fill="#8dd3c7" stroke="black" points="864.82,-84.8 861.82,-88.8 840.82,-88.8 837.82,-84.8 699.18,-84.8 699.18,-48.8 864.82,-48.8 864.82,-84.8"/>
<text text-anchor="middle" x="782" y="-62.6" font-family="Times,serif" font-size="14.00">DashboardRoutingModule</text>
</g>
<!-- DashboardRoutingModule&#45;&gt;DashboardModule -->
<g id="edge8" class="edge">
<title>DashboardRoutingModule&#45;&gt;DashboardModule</title>
<path fill="none" stroke="black" d="M782,-85.04C782,-100.37 782,-119.8 782,-119.8 782,-119.8 907.86,-119.8 907.86,-119.8"/>
<polygon fill="black" stroke="black" points="907.86,-123.3 917.86,-119.8 907.86,-116.3 907.86,-123.3"/>
</g>
<!-- FooterComponent -->
<g id="node10" class="node">
<title>FooterComponent</title>
<polygon fill="#8dd3c7" stroke="black" points="680.88,-84.8 677.88,-88.8 656.88,-88.8 653.88,-84.8 563.12,-84.8 563.12,-48.8 680.88,-48.8 680.88,-84.8"/>
<text text-anchor="middle" x="622" y="-62.6" font-family="Times,serif" font-size="14.00">FooterComponent</text>
</g>
<!-- FooterComponent&#45;&gt;DashboardModule -->
<g id="edge9" class="edge">
<title>FooterComponent&#45;&gt;DashboardModule</title>
<path fill="none" stroke="black" d="M622,-84.83C622,-101.86 622,-124.8 622,-124.8 622,-124.8 907.61,-124.8 907.61,-124.8"/>
<polygon fill="black" stroke="black" points="907.61,-128.3 917.61,-124.8 907.61,-121.3 907.61,-128.3"/>
</g>
<!-- FormsModule -->
<g id="node11" class="node">
<title>FormsModule</title>
<polygon fill="#8dd3c7" stroke="black" points="544.84,-84.8 541.84,-88.8 520.84,-88.8 517.84,-84.8 449.16,-84.8 449.16,-48.8 544.84,-48.8 544.84,-84.8"/>
<text text-anchor="middle" x="497" y="-62.6" font-family="Times,serif" font-size="14.00">FormsModule</text>
</g>
<!-- FormsModule&#45;&gt;DashboardModule -->
<g id="edge10" class="edge">
<title>FormsModule&#45;&gt;DashboardModule</title>
<path fill="none" stroke="black" d="M497,-85.02C497,-103.63 497,-129.8 497,-129.8 497,-129.8 907.57,-129.8 907.57,-129.8"/>
<polygon fill="black" stroke="black" points="907.57,-133.3 917.57,-129.8 907.57,-126.3 907.57,-133.3"/>
</g>
<!-- GridTopAppComponent -->
<g id="node12" class="node">
<title>GridTopAppComponent</title>
<polygon fill="#8dd3c7" stroke="black" points="431.66,-84.8 428.66,-88.8 407.66,-88.8 404.66,-84.8 278.34,-84.8 278.34,-48.8 431.66,-48.8 431.66,-84.8"/>
<text text-anchor="middle" x="355" y="-62.6" font-family="Times,serif" font-size="14.00">GridTopAppComponent</text>
</g>
<!-- GridTopAppComponent&#45;&gt;DashboardModule -->
<g id="edge11" class="edge">
<title>GridTopAppComponent&#45;&gt;DashboardModule</title>
<path fill="none" stroke="black" d="M355,-85.02C355,-105.17 355,-134.8 355,-134.8 355,-134.8 907.7,-134.8 907.7,-134.8"/>
<polygon fill="black" stroke="black" points="907.7,-138.3 917.7,-134.8 907.7,-131.3 907.7,-138.3"/>
</g>
<!-- HeaderComponent -->
<g id="node13" class="node">
<title>HeaderComponent</title>
<polygon fill="#8dd3c7" stroke="black" points="259.75,-84.8 256.75,-88.8 235.75,-88.8 232.75,-84.8 138.25,-84.8 138.25,-48.8 259.75,-48.8 259.75,-84.8"/>
<text text-anchor="middle" x="199" y="-62.6" font-family="Times,serif" font-size="14.00">HeaderComponent</text>
</g>
<!-- HeaderComponent&#45;&gt;DashboardModule -->
<g id="edge12" class="edge">
<title>HeaderComponent&#45;&gt;DashboardModule</title>
<path fill="none" stroke="black" d="M199,-84.84C199,-106.46 199,-139.8 199,-139.8 199,-139.8 907.84,-139.8 907.84,-139.8"/>
<polygon fill="black" stroke="black" points="907.84,-143.3 917.84,-139.8 907.84,-136.3 907.84,-143.3"/>
</g>
<!-- TrimDirective -->
<g id="node14" class="node">
<title>TrimDirective</title>
<polygon fill="#8dd3c7" stroke="black" points="120.08,-84.8 117.08,-88.8 96.08,-88.8 93.08,-84.8 23.92,-84.8 23.92,-48.8 120.08,-48.8 120.08,-84.8"/>
<text text-anchor="middle" x="72" y="-62.6" font-family="Times,serif" font-size="14.00">TrimDirective</text>
</g>
<!-- TrimDirective&#45;&gt;DashboardModule -->
<g id="edge13" class="edge">
<title>TrimDirective&#45;&gt;DashboardModule</title>
<path fill="none" stroke="black" d="M72,-84.89C72,-107.93 72,-144.8 72,-144.8 72,-144.8 907.85,-144.8 907.85,-144.8"/>
<polygon fill="black" stroke="black" points="907.85,-148.3 917.85,-144.8 907.85,-141.3 907.85,-148.3"/>
</g>
</g>
</svg>
