<?xml version="1.0" encoding="UTF-8" standalone="no"?>
<!DOCTYPE svg PUBLIC "-//W3C//DTD SVG 1.1//EN"
 "http://www.w3.org/Graphics/SVG/1.1/DTD/svg11.dtd">
<!-- Generated by graphviz version 5.0.0 (20220707.1540)
 -->
<!-- Title: dependencies Pages: 1 -->
<svg width="2065pt" height="174pt"
 viewBox="0.00 0.00 2065.00 173.80" xmlns="http://www.w3.org/2000/svg" xmlns:xlink="http://www.w3.org/1999/xlink">
<g id="graph0" class="graph" transform="scale(1 1) rotate(0) translate(4 169.8)">
<title>dependencies</title>
<polygon fill="white" stroke="transparent" points="-4,4 -4,-169.8 2061,-169.8 2061,4 -4,4"/>
<text text-anchor="middle" x="1028.5" y="-8.2" font-family="sans-serif" font-size="14.00">dependencies</text>
<g id="clust1" class="cluster">
<title>cluster_WorkflowsModule</title>
<polygon fill="none" stroke="black" stroke-dasharray="1,5" points="8,-32.8 8,-157.8 2049,-157.8 2049,-32.8 8,-32.8"/>
</g>
<g id="clust2" class="cluster">
<title>cluster_WorkflowsModule_declarations</title>
<polygon fill="none" stroke="black" points="1505,-40.8 1505,-92.8 2041,-92.8 2041,-40.8 1505,-40.8"/>
</g>
<g id="clust6" class="cluster">
<title>cluster_WorkflowsModule_imports</title>
<polygon fill="none" stroke="black" points="16,-40.8 16,-92.8 1497,-92.8 1497,-40.8 16,-40.8"/>
</g>
<!-- AddSubmissionComponent -->
<g id="node1" class="node">
<title>AddSubmissionComponent</title>
<polygon fill="#ffffb3" stroke="black" points="2033.29,-84.8 1862.71,-84.8 1862.71,-48.8 2033.29,-48.8 2033.29,-84.8"/>
<text text-anchor="middle" x="1948" y="-62.6" font-family="Times,serif" font-size="14.00">AddSubmissionComponent</text>
</g>
<!-- WorkflowsModule -->
<g id="node4" class="node">
<title>WorkflowsModule</title>
<polygon fill="#8dd3c7" stroke="black" points="1084.04,-149.8 1081.04,-153.8 1060.04,-153.8 1057.04,-149.8 961.96,-149.8 961.96,-113.8 1084.04,-113.8 1084.04,-149.8"/>
<text text-anchor="middle" x="1023" y="-127.6" font-family="Times,serif" font-size="14.00">WorkflowsModule</text>
</g>
<!-- AddSubmissionComponent&#45;&gt;WorkflowsModule -->
<g id="edge1" class="edge">
<title>AddSubmissionComponent&#45;&gt;WorkflowsModule</title>
<path fill="none" stroke="black" d="M1948,-84.89C1948,-107.93 1948,-144.8 1948,-144.8 1948,-144.8 1094.05,-144.8 1094.05,-144.8"/>
<polygon fill="black" stroke="black" points="1094.05,-141.3 1084.05,-144.8 1094.05,-148.3 1094.05,-141.3"/>
</g>
<!-- ViewWorkflowComponent -->
<g id="node2" class="node">
<title>ViewWorkflowComponent</title>
<polygon fill="#ffffb3" stroke="black" points="1844.69,-84.8 1675.31,-84.8 1675.31,-48.8 1844.69,-48.8 1844.69,-84.8"/>
<text text-anchor="middle" x="1760" y="-62.6" font-family="Times,serif" font-size="14.00">ViewWorkflowComponent</text>
</g>
<!-- ViewWorkflowComponent&#45;&gt;WorkflowsModule -->
<g id="edge2" class="edge">
<title>ViewWorkflowComponent&#45;&gt;WorkflowsModule</title>
<path fill="none" stroke="black" d="M1760,-85.08C1760,-106.12 1760,-137.8 1760,-137.8 1760,-137.8 1094.25,-137.8 1094.25,-137.8"/>
<polygon fill="black" stroke="black" points="1094.25,-134.3 1084.25,-137.8 1094.25,-141.3 1094.25,-134.3"/>
</g>
<!-- WorkflowsComponent -->
<g id="node3" class="node">
<title>WorkflowsComponent</title>
<polygon fill="#ffffb3" stroke="black" points="1657.32,-84.8 1512.68,-84.8 1512.68,-48.8 1657.32,-48.8 1657.32,-84.8"/>
<text text-anchor="middle" x="1585" y="-62.6" font-family="Times,serif" font-size="14.00">WorkflowsComponent</text>
</g>
<!-- WorkflowsComponent&#45;&gt;WorkflowsModule -->
<g id="edge3" class="edge">
<title>WorkflowsComponent&#45;&gt;WorkflowsModule</title>
<path fill="none" stroke="black" d="M1585,-84.91C1585,-104.14 1585,-131.8 1585,-131.8 1585,-131.8 1094.21,-131.8 1094.21,-131.8"/>
<polygon fill="black" stroke="black" points="1094.21,-128.3 1084.21,-131.8 1094.21,-135.3 1094.21,-128.3"/>
</g>
<!-- CustomMultiSelectComponent -->
<g id="node5" class="node">
<title>CustomMultiSelectComponent</title>
<polygon fill="#8dd3c7" stroke="black" points="1489.22,-84.8 1486.22,-88.8 1465.22,-88.8 1462.22,-84.8 1298.78,-84.8 1298.78,-48.8 1489.22,-48.8 1489.22,-84.8"/>
<text text-anchor="middle" x="1394" y="-62.6" font-family="Times,serif" font-size="14.00">CustomMultiSelectComponent</text>
</g>
<!-- CustomMultiSelectComponent&#45;&gt;WorkflowsModule -->
<g id="edge4" class="edge">
<title>CustomMultiSelectComponent&#45;&gt;WorkflowsModule</title>
<path fill="none" stroke="black" d="M1394,-84.82C1394,-102.17 1394,-125.8 1394,-125.8 1394,-125.8 1094.26,-125.8 1094.26,-125.8"/>
<polygon fill="black" stroke="black" points="1094.26,-122.3 1084.26,-125.8 1094.26,-129.3 1094.26,-122.3"/>
</g>
<!-- FilterComponent -->
<g id="node6" class="node">
<title>FilterComponent</title>
<polygon fill="#8dd3c7" stroke="black" points="1280.66,-84.8 1277.66,-88.8 1256.66,-88.8 1253.66,-84.8 1169.34,-84.8 1169.34,-48.8 1280.66,-48.8 1280.66,-84.8"/>
<text text-anchor="middle" x="1225" y="-62.6" font-family="Times,serif" font-size="14.00">FilterComponent</text>
</g>
<!-- FilterComponent&#45;&gt;WorkflowsModule -->
<g id="edge5" class="edge">
<title>FilterComponent&#45;&gt;WorkflowsModule</title>
<path fill="none" stroke="black" d="M1225,-85.04C1225,-100.37 1225,-119.8 1225,-119.8 1225,-119.8 1094.15,-119.8 1094.15,-119.8"/>
<polygon fill="black" stroke="black" points="1094.15,-116.3 1084.15,-119.8 1094.15,-123.3 1094.15,-116.3"/>
</g>
<!-- FooterComponent -->
<g id="node7" class="node">
<title>FooterComponent</title>
<polygon fill="#8dd3c7" stroke="black" points="1150.88,-84.8 1147.88,-88.8 1126.88,-88.8 1123.88,-84.8 1033.12,-84.8 1033.12,-48.8 1150.88,-48.8 1150.88,-84.8"/>
<text text-anchor="middle" x="1092" y="-62.6" font-family="Times,serif" font-size="14.00">FooterComponent</text>
</g>
<!-- FooterComponent&#45;&gt;WorkflowsModule -->
<g id="edge6" class="edge">
<title>FooterComponent&#45;&gt;WorkflowsModule</title>
<path fill="none" stroke="black" d="M1058.66,-84.91C1058.66,-84.91 1058.66,-103.79 1058.66,-103.79"/>
<polygon fill="black" stroke="black" points="1055.16,-103.79 1058.66,-113.79 1062.16,-103.79 1055.16,-103.79"/>
</g>
<!-- HeaderComponent -->
<g id="node8" class="node">
<title>HeaderComponent</title>
<polygon fill="#8dd3c7" stroke="black" points="1014.75,-84.8 1011.75,-88.8 990.75,-88.8 987.75,-84.8 893.25,-84.8 893.25,-48.8 1014.75,-48.8 1014.75,-84.8"/>
<text text-anchor="middle" x="954" y="-62.6" font-family="Times,serif" font-size="14.00">HeaderComponent</text>
</g>
<!-- HeaderComponent&#45;&gt;WorkflowsModule -->
<g id="edge7" class="edge">
<title>HeaderComponent&#45;&gt;WorkflowsModule</title>
<path fill="none" stroke="black" d="M988.3,-84.91C988.3,-84.91 988.3,-103.79 988.3,-103.79"/>
<polygon fill="black" stroke="black" points="984.8,-103.79 988.3,-113.79 991.8,-103.79 984.8,-103.79"/>
</g>
<!-- NgOptimizedImage -->
<g id="node9" class="node">
<title>NgOptimizedImage</title>
<polygon fill="#8dd3c7" stroke="black" points="875.69,-84.8 872.69,-88.8 851.69,-88.8 848.69,-84.8 748.31,-84.8 748.31,-48.8 875.69,-48.8 875.69,-84.8"/>
<text text-anchor="middle" x="812" y="-62.6" font-family="Times,serif" font-size="14.00">NgOptimizedImage</text>
</g>
<!-- NgOptimizedImage&#45;&gt;WorkflowsModule -->
<g id="edge8" class="edge">
<title>NgOptimizedImage&#45;&gt;WorkflowsModule</title>
<path fill="none" stroke="black" d="M812,-85.04C812,-100.37 812,-119.8 812,-119.8 812,-119.8 951.69,-119.8 951.69,-119.8"/>
<polygon fill="black" stroke="black" points="951.69,-123.3 961.69,-119.8 951.69,-116.3 951.69,-123.3"/>
</g>
<!-- TableLoaderComponent -->
<g id="node10" class="node">
<title>TableLoaderComponent</title>
<polygon fill="#8dd3c7" stroke="black" points="730.34,-84.8 727.34,-88.8 706.34,-88.8 703.34,-84.8 577.66,-84.8 577.66,-48.8 730.34,-48.8 730.34,-84.8"/>
<text text-anchor="middle" x="654" y="-62.6" font-family="Times,serif" font-size="14.00">TableLoaderComponent</text>
</g>
<!-- TableLoaderComponent&#45;&gt;WorkflowsModule -->
<g id="edge9" class="edge">
<title>TableLoaderComponent&#45;&gt;WorkflowsModule</title>
<path fill="none" stroke="black" d="M654,-84.82C654,-102.17 654,-125.8 654,-125.8 654,-125.8 951.65,-125.8 951.65,-125.8"/>
<polygon fill="black" stroke="black" points="951.65,-129.3 961.65,-125.8 951.65,-122.3 951.65,-129.3"/>
</g>
<!-- TableViewComponent -->
<g id="node11" class="node">
<title>TableViewComponent</title>
<polygon fill="#8dd3c7" stroke="black" points="559.53,-84.8 556.53,-88.8 535.53,-88.8 532.53,-84.8 416.47,-84.8 416.47,-48.8 559.53,-48.8 559.53,-84.8"/>
<text text-anchor="middle" x="488" y="-62.6" font-family="Times,serif" font-size="14.00">TableViewComponent</text>
</g>
<!-- TableViewComponent&#45;&gt;WorkflowsModule -->
<g id="edge10" class="edge">
<title>TableViewComponent&#45;&gt;WorkflowsModule</title>
<path fill="none" stroke="black" d="M488,-84.91C488,-104.14 488,-131.8 488,-131.8 488,-131.8 951.89,-131.8 951.89,-131.8"/>
<polygon fill="black" stroke="black" points="951.89,-135.3 961.89,-131.8 951.89,-128.3 951.89,-135.3"/>
</g>
<!-- WorkflowSkeletonComponent -->
<g id="node12" class="node">
<title>WorkflowSkeletonComponent</title>
<polygon fill="#8dd3c7" stroke="black" points="397.86,-84.8 394.86,-88.8 373.86,-88.8 370.86,-84.8 210.14,-84.8 210.14,-48.8 397.86,-48.8 397.86,-84.8"/>
<text text-anchor="middle" x="304" y="-62.6" font-family="Times,serif" font-size="14.00">WorkflowSkeletonComponent</text>
</g>
<!-- WorkflowSkeletonComponent&#45;&gt;WorkflowsModule -->
<g id="edge11" class="edge">
<title>WorkflowSkeletonComponent&#45;&gt;WorkflowsModule</title>
<path fill="none" stroke="black" d="M304,-85.08C304,-106.12 304,-137.8 304,-137.8 304,-137.8 951.7,-137.8 951.7,-137.8"/>
<polygon fill="black" stroke="black" points="951.7,-141.3 961.7,-137.8 951.7,-134.3 951.7,-141.3"/>
</g>
<!-- WorkflowsRoutingModule -->
<g id="node13" class="node">
<title>WorkflowsRoutingModule</title>
<polygon fill="#8dd3c7" stroke="black" points="191.66,-84.8 188.66,-88.8 167.66,-88.8 164.66,-84.8 24.34,-84.8 24.34,-48.8 191.66,-48.8 191.66,-84.8"/>
<text text-anchor="middle" x="108" y="-62.6" font-family="Times,serif" font-size="14.00">WorkflowsRoutingModule</text>
</g>
<!-- WorkflowsRoutingModule&#45;&gt;WorkflowsModule -->
<g id="edge12" class="edge">
<title>WorkflowsRoutingModule&#45;&gt;WorkflowsModule</title>
<path fill="none" stroke="black" d="M108,-84.89C108,-107.93 108,-144.8 108,-144.8 108,-144.8 951.9,-144.8 951.9,-144.8"/>
<polygon fill="black" stroke="black" points="951.9,-148.3 961.9,-144.8 951.9,-141.3 951.9,-148.3"/>
</g>
</g>
</svg>
