<?xml version="1.0" encoding="UTF-8" standalone="no"?>
<!DOCTYPE svg PUBLIC "-//W3C//DTD SVG 1.1//EN"
 "http://www.w3.org/Graphics/SVG/1.1/DTD/svg11.dtd">
<!-- Generated by graphviz version 5.0.0 (20220707.1540)
 -->
<!-- Title: dependencies Pages: 1 -->
<svg width="1089pt" height="174pt"
 viewBox="0.00 0.00 1089.00 173.80" xmlns="http://www.w3.org/2000/svg" xmlns:xlink="http://www.w3.org/1999/xlink">
<g id="graph0" class="graph" transform="scale(1 1) rotate(0) translate(4 169.8)">
<title>dependencies</title>
<polygon fill="white" stroke="transparent" points="-4,4 -4,-169.8 1085,-169.8 1085,4 -4,4"/>
<text text-anchor="middle" x="540.5" y="-8.2" font-family="sans-serif" font-size="14.00">dependencies</text>
<g id="clust1" class="cluster">
<title>cluster_AuthModule</title>
<polygon fill="none" stroke="black" stroke-dasharray="1,5" points="8,-32.8 8,-157.8 1073,-157.8 1073,-32.8 8,-32.8"/>
</g>
<g id="clust2" class="cluster">
<title>cluster_AuthModule_declarations</title>
<polygon fill="none" stroke="black" points="431,-40.8 431,-92.8 1065,-92.8 1065,-40.8 431,-40.8"/>
</g>
<g id="clust7" class="cluster">
<title>cluster_AuthModule_imports</title>
<polygon fill="none" stroke="black" points="16,-40.8 16,-92.8 423,-92.8 423,-40.8 16,-40.8"/>
</g>
<!-- AuthComponent -->
<g id="node1" class="node">
<title>AuthComponent</title>
<polygon fill="#ffffb3" stroke="black" points="1056.83,-84.8 947.17,-84.8 947.17,-48.8 1056.83,-48.8 1056.83,-84.8"/>
<text text-anchor="middle" x="1002" y="-62.6" font-family="Times,serif" font-size="14.00">AuthComponent</text>
</g>
<!-- AuthModule -->
<g id="node5" class="node">
<title>AuthModule</title>
<polygon fill="#8dd3c7" stroke="black" points="572.55,-149.8 569.55,-153.8 548.55,-153.8 545.55,-149.8 485.45,-149.8 485.45,-113.8 572.55,-113.8 572.55,-149.8"/>
<text text-anchor="middle" x="529" y="-127.6" font-family="Times,serif" font-size="14.00">AuthModule</text>
</g>
<!-- AuthComponent&#45;&gt;AuthModule -->
<g id="edge1" class="edge">
<title>AuthComponent&#45;&gt;AuthModule</title>
<path fill="none" stroke="black" d="M1002,-85.09C1002,-107.01 1002,-140.8 1002,-140.8 1002,-140.8 582.65,-140.8 582.65,-140.8"/>
<polygon fill="black" stroke="black" points="582.65,-137.3 572.65,-140.8 582.65,-144.3 582.65,-137.3"/>
</g>
<!-- LoginComponent -->
<g id="node2" class="node">
<title>LoginComponent</title>
<polygon fill="#ffffb3" stroke="black" points="929.27,-84.8 814.73,-84.8 814.73,-48.8 929.27,-48.8 929.27,-84.8"/>
<text text-anchor="middle" x="872" y="-62.6" font-family="Times,serif" font-size="14.00">LoginComponent</text>
</g>
<!-- LoginComponent&#45;&gt;AuthModule -->
<g id="edge2" class="edge">
<title>LoginComponent&#45;&gt;AuthModule</title>
<path fill="none" stroke="black" d="M872,-84.91C872,-104.14 872,-131.8 872,-131.8 872,-131.8 582.79,-131.8 582.79,-131.8"/>
<polygon fill="black" stroke="black" points="582.79,-128.3 572.79,-131.8 582.79,-135.3 582.79,-128.3"/>
</g>
<!-- ModuleGuardComponent -->
<g id="node3" class="node">
<title>ModuleGuardComponent</title>
<polygon fill="#ffffb3" stroke="black" points="796.87,-84.8 637.13,-84.8 637.13,-48.8 796.87,-48.8 796.87,-84.8"/>
<text text-anchor="middle" x="717" y="-62.6" font-family="Times,serif" font-size="14.00">ModuleGuardComponent</text>
</g>
<!-- ModuleGuardComponent&#45;&gt;AuthModule -->
<g id="edge3" class="edge">
<title>ModuleGuardComponent&#45;&gt;AuthModule</title>
<path fill="none" stroke="black" d="M717,-84.83C717,-101.2 717,-122.8 717,-122.8 717,-122.8 582.6,-122.8 582.6,-122.8"/>
<polygon fill="black" stroke="black" points="582.6,-119.3 572.6,-122.8 582.6,-126.3 582.6,-119.3"/>
</g>
<!-- SubmoduleGuardComponent -->
<g id="node4" class="node">
<title>SubmoduleGuardComponent</title>
<polygon fill="#ffffb3" stroke="black" points="619.1,-84.8 438.9,-84.8 438.9,-48.8 619.1,-48.8 619.1,-84.8"/>
<text text-anchor="middle" x="529" y="-62.6" font-family="Times,serif" font-size="14.00">SubmoduleGuardComponent</text>
</g>
<!-- SubmoduleGuardComponent&#45;&gt;AuthModule -->
<g id="edge4" class="edge">
<title>SubmoduleGuardComponent&#45;&gt;AuthModule</title>
<path fill="none" stroke="black" d="M529,-84.91C529,-84.91 529,-103.79 529,-103.79"/>
<polygon fill="black" stroke="black" points="525.5,-103.79 529,-113.79 532.5,-103.79 525.5,-103.79"/>
</g>
<!-- AuthRoutingModule -->
<g id="node6" class="node">
<title>AuthRoutingModule</title>
<polygon fill="#8dd3c7" stroke="black" points="415.17,-84.8 412.17,-88.8 391.17,-88.8 388.17,-84.8 282.83,-84.8 282.83,-48.8 415.17,-48.8 415.17,-84.8"/>
<text text-anchor="middle" x="349" y="-62.6" font-family="Times,serif" font-size="14.00">AuthRoutingModule</text>
</g>
<!-- AuthRoutingModule&#45;&gt;AuthModule -->
<g id="edge5" class="edge">
<title>AuthRoutingModule&#45;&gt;AuthModule</title>
<path fill="none" stroke="black" d="M349,-84.83C349,-101.2 349,-122.8 349,-122.8 349,-122.8 475.43,-122.8 475.43,-122.8"/>
<polygon fill="black" stroke="black" points="475.43,-126.3 485.43,-122.8 475.43,-119.3 475.43,-126.3"/>
</g>
<!-- FormsModule -->
<g id="node7" class="node">
<title>FormsModule</title>
<polygon fill="#8dd3c7" stroke="black" points="264.84,-84.8 261.84,-88.8 240.84,-88.8 237.84,-84.8 169.16,-84.8 169.16,-48.8 264.84,-48.8 264.84,-84.8"/>
<text text-anchor="middle" x="217" y="-62.6" font-family="Times,serif" font-size="14.00">FormsModule</text>
</g>
<!-- FormsModule&#45;&gt;AuthModule -->
<g id="edge6" class="edge">
<title>FormsModule&#45;&gt;AuthModule</title>
<path fill="none" stroke="black" d="M217,-84.91C217,-104.14 217,-131.8 217,-131.8 217,-131.8 475.29,-131.8 475.29,-131.8"/>
<polygon fill="black" stroke="black" points="475.29,-135.3 485.29,-131.8 475.29,-128.3 475.29,-135.3"/>
</g>
<!-- NgOptimizedImage -->
<g id="node8" class="node">
<title>NgOptimizedImage</title>
<polygon fill="#8dd3c7" stroke="black" points="151.69,-84.8 148.69,-88.8 127.69,-88.8 124.69,-84.8 24.31,-84.8 24.31,-48.8 151.69,-48.8 151.69,-84.8"/>
<text text-anchor="middle" x="88" y="-62.6" font-family="Times,serif" font-size="14.00">NgOptimizedImage</text>
</g>
<!-- NgOptimizedImage&#45;&gt;AuthModule -->
<g id="edge7" class="edge">
<title>NgOptimizedImage&#45;&gt;AuthModule</title>
<path fill="none" stroke="black" d="M88,-85.09C88,-107.01 88,-140.8 88,-140.8 88,-140.8 475.1,-140.8 475.1,-140.8"/>
<polygon fill="black" stroke="black" points="475.1,-144.3 485.1,-140.8 475.1,-137.3 475.1,-144.3"/>
</g>
</g>
</svg>
