<?xml version="1.0" encoding="UTF-8" standalone="no"?>
<!DOCTYPE svg PUBLIC "-//W3C//DTD SVG 1.1//EN"
 "http://www.w3.org/Graphics/SVG/1.1/DTD/svg11.dtd">
<!-- Generated by graphviz version 5.0.0 (20220707.1540)
 -->
<!-- Title: dependencies Pages: 1 -->
<svg width="617pt" height="247pt"
 viewBox="0.00 0.00 617.00 246.80" xmlns="http://www.w3.org/2000/svg" xmlns:xlink="http://www.w3.org/1999/xlink">
<g id="graph0" class="graph" transform="scale(1 1) rotate(0) translate(4 242.8)">
<title>dependencies</title>
<polygon fill="white" stroke="transparent" points="-4,4 -4,-242.8 613,-242.8 613,4 -4,4"/>
<text text-anchor="middle" x="304.5" y="-8.2" font-family="sans-serif" font-size="14.00">dependencies</text>
<g id="clust1" class="cluster">
<title>cluster_AppModule</title>
<polygon fill="none" stroke="black" stroke-dasharray="1,5" points="8,-32.8 8,-230.8 601,-230.8 601,-32.8 8,-32.8"/>
</g>
<g id="clust2" class="cluster">
<title>cluster_AppModule_declarations</title>
<polygon fill="none" stroke="black" points="471,-40.8 471,-92.8 593,-92.8 593,-40.8 471,-40.8"/>
</g>
<g id="clust4" class="cluster">
<title>cluster_AppModule_imports</title>
<polygon fill="none" stroke="black" points="16,-40.8 16,-92.8 463,-92.8 463,-40.8 16,-40.8"/>
</g>
<g id="clust6" class="cluster">
<title>cluster_AppModule_bootstrap</title>
<polygon fill="none" stroke="black" points="266,-170.8 266,-222.8 390,-222.8 390,-170.8 266,-170.8"/>
</g>
<!-- AppComponent -->
<g id="node1" class="node">
<title>AppComponent</title>
<polygon fill="#ffffb3" stroke="black" points="584.94,-84.8 479.06,-84.8 479.06,-48.8 584.94,-48.8 584.94,-84.8"/>
<text text-anchor="middle" x="532" y="-62.6" font-family="Times,serif" font-size="14.00">AppComponent</text>
</g>
<!-- AppModule -->
<g id="node2" class="node">
<title>AppModule</title>
<polygon fill="#8dd3c7" stroke="black" points="369.66,-149.8 366.66,-153.8 345.66,-153.8 342.66,-149.8 286.34,-149.8 286.34,-113.8 369.66,-113.8 369.66,-149.8"/>
<text text-anchor="middle" x="328" y="-127.6" font-family="Times,serif" font-size="14.00">AppModule</text>
</g>
<!-- AppComponent&#45;&gt;AppModule -->
<g id="edge1" class="edge">
<title>AppComponent&#45;&gt;AppModule</title>
<path fill="none" stroke="black" d="M532,-84.91C532,-104.14 532,-131.8 532,-131.8 532,-131.8 379.77,-131.8 379.77,-131.8"/>
<polygon fill="black" stroke="black" points="379.77,-128.3 369.77,-131.8 379.77,-135.3 379.77,-128.3"/>
</g>
<!-- AppComponent  -->
<g id="node6" class="node">
<title>AppComponent </title>
<polygon fill="#80b1d3" stroke="black" points="382.44,-214.8 273.56,-214.8 273.56,-178.8 382.44,-178.8 382.44,-214.8"/>
<text text-anchor="middle" x="328" y="-192.6" font-family="Times,serif" font-size="14.00">AppComponent </text>
</g>
<!-- AppModule&#45;&gt;AppComponent  -->
<g id="edge5" class="edge">
<title>AppModule&#45;&gt;AppComponent </title>
<path fill="none" stroke="black" stroke-dasharray="1,5" d="M328,-149.91C328,-149.91 328,-168.79 328,-168.79"/>
<polygon fill="black" stroke="black" points="324.5,-168.79 328,-178.79 331.5,-168.79 324.5,-168.79"/>
</g>
<!-- AppRoutingModule -->
<g id="node3" class="node">
<title>AppRoutingModule</title>
<polygon fill="#8dd3c7" stroke="black" points="455.28,-84.8 452.28,-88.8 431.28,-88.8 428.28,-84.8 326.72,-84.8 326.72,-48.8 455.28,-48.8 455.28,-84.8"/>
<text text-anchor="middle" x="391" y="-62.6" font-family="Times,serif" font-size="14.00">AppRoutingModule</text>
</g>
<!-- AppRoutingModule&#45;&gt;AppModule -->
<g id="edge2" class="edge">
<title>AppRoutingModule&#45;&gt;AppModule</title>
<path fill="none" stroke="black" d="M348.22,-84.91C348.22,-84.91 348.22,-103.79 348.22,-103.79"/>
<polygon fill="black" stroke="black" points="344.72,-103.79 348.22,-113.79 351.72,-103.79 344.72,-103.79"/>
</g>
<!-- CoreModule -->
<g id="node4" class="node">
<title>CoreModule</title>
<polygon fill="#8dd3c7" stroke="black" points="308.27,-84.8 305.27,-88.8 284.27,-88.8 281.27,-84.8 221.73,-84.8 221.73,-48.8 308.27,-48.8 308.27,-84.8"/>
<text text-anchor="middle" x="265" y="-62.6" font-family="Times,serif" font-size="14.00">CoreModule</text>
</g>
<!-- CoreModule&#45;&gt;AppModule -->
<g id="edge3" class="edge">
<title>CoreModule&#45;&gt;AppModule</title>
<path fill="none" stroke="black" d="M297.28,-84.91C297.28,-84.91 297.28,-103.79 297.28,-103.79"/>
<polygon fill="black" stroke="black" points="293.78,-103.79 297.28,-113.79 300.78,-103.79 293.78,-103.79"/>
</g>
<!-- EmailSubmissionComponent -->
<g id="node5" class="node">
<title>EmailSubmissionComponent</title>
<polygon fill="#8dd3c7" stroke="black" points="204.12,-84.8 201.12,-88.8 180.12,-88.8 177.12,-84.8 23.88,-84.8 23.88,-48.8 204.12,-48.8 204.12,-84.8"/>
<text text-anchor="middle" x="114" y="-62.6" font-family="Times,serif" font-size="14.00">EmailSubmissionComponent</text>
</g>
<!-- EmailSubmissionComponent&#45;&gt;AppModule -->
<g id="edge4" class="edge">
<title>EmailSubmissionComponent&#45;&gt;AppModule</title>
<path fill="none" stroke="black" d="M114,-84.91C114,-104.14 114,-131.8 114,-131.8 114,-131.8 276.23,-131.8 276.23,-131.8"/>
<polygon fill="black" stroke="black" points="276.23,-135.3 286.23,-131.8 276.23,-128.3 276.23,-135.3"/>
</g>
</g>
</svg>
