<?xml version="1.0" encoding="UTF-8" standalone="no"?>
<!DOCTYPE svg PUBLIC "-//W3C//DTD SVG 1.1//EN"
 "http://www.w3.org/Graphics/SVG/1.1/DTD/svg11.dtd">
<!-- Generated by graphviz version 5.0.0 (20220707.1540)
 -->
<!-- Title: dependencies Pages: 1 -->
<svg width="2560pt" height="174pt"
 viewBox="0.00 0.00 2560.00 173.80" xmlns="http://www.w3.org/2000/svg" xmlns:xlink="http://www.w3.org/1999/xlink">
<g id="graph0" class="graph" transform="scale(1 1) rotate(0) translate(4 169.8)">
<title>dependencies</title>
<polygon fill="white" stroke="transparent" points="-4,4 -4,-169.8 2556,-169.8 2556,4 -4,4"/>
<text text-anchor="middle" x="1276" y="-8.2" font-family="sans-serif" font-size="14.00">dependencies</text>
<g id="clust1" class="cluster">
<title>cluster_AppListingModule</title>
<polygon fill="none" stroke="black" stroke-dasharray="1,5" points="8,-32.8 8,-157.8 2544,-157.8 2544,-32.8 8,-32.8"/>
</g>
<g id="clust2" class="cluster">
<title>cluster_AppListingModule_declarations</title>
<polygon fill="none" stroke="black" points="1623,-40.8 1623,-92.8 2536,-92.8 2536,-40.8 1623,-40.8"/>
</g>
<g id="clust8" class="cluster">
<title>cluster_AppListingModule_imports</title>
<polygon fill="none" stroke="black" points="16,-40.8 16,-92.8 1615,-92.8 1615,-40.8 16,-40.8"/>
</g>
<!-- AddSubmoduleComponent -->
<g id="node1" class="node">
<title>AddSubmoduleComponent</title>
<polygon fill="#ffffb3" stroke="black" points="2527.72,-84.8 2358.28,-84.8 2358.28,-48.8 2527.72,-48.8 2527.72,-84.8"/>
<text text-anchor="middle" x="2443" y="-62.6" font-family="Times,serif" font-size="14.00">AddSubmoduleComponent</text>
</g>
<!-- AppListingModule -->
<g id="node6" class="node">
<title>AppListingModule</title>
<polygon fill="#8dd3c7" stroke="black" points="1218.83,-149.8 1215.83,-153.8 1194.83,-153.8 1191.83,-149.8 1095.17,-149.8 1095.17,-113.8 1218.83,-113.8 1218.83,-149.8"/>
<text text-anchor="middle" x="1157" y="-127.6" font-family="Times,serif" font-size="14.00">AppListingModule</text>
</g>
<!-- AddSubmoduleComponent&#45;&gt;AppListingModule -->
<g id="edge1" class="edge">
<title>AddSubmoduleComponent&#45;&gt;AppListingModule</title>
<path fill="none" stroke="black" d="M2443,-85.12C2443,-108.46 2443,-145.8 2443,-145.8 2443,-145.8 1229.03,-145.8 1229.03,-145.8"/>
<polygon fill="black" stroke="black" points="1229.03,-142.3 1219.03,-145.8 1229.03,-149.3 1229.03,-142.3"/>
</g>
<!-- AppListingComponent -->
<g id="node2" class="node">
<title>AppListingComponent</title>
<polygon fill="#ffffb3" stroke="black" points="2340.61,-84.8 2195.39,-84.8 2195.39,-48.8 2340.61,-48.8 2340.61,-84.8"/>
<text text-anchor="middle" x="2268" y="-62.6" font-family="Times,serif" font-size="14.00">AppListingComponent</text>
</g>
<!-- AppListingComponent&#45;&gt;AppListingModule -->
<g id="edge2" class="edge">
<title>AppListingComponent&#45;&gt;AppListingModule</title>
<path fill="none" stroke="black" d="M2268,-85.09C2268,-107.01 2268,-140.8 2268,-140.8 2268,-140.8 1228.71,-140.8 1228.71,-140.8"/>
<polygon fill="black" stroke="black" points="1228.71,-137.3 1218.71,-140.8 1228.71,-144.3 1228.71,-137.3"/>
</g>
<!-- EditSubmissionComponent -->
<g id="node3" class="node">
<title>EditSubmissionComponent</title>
<polygon fill="#ffffb3" stroke="black" points="2177.01,-84.8 2006.99,-84.8 2006.99,-48.8 2177.01,-48.8 2177.01,-84.8"/>
<text text-anchor="middle" x="2092" y="-62.6" font-family="Times,serif" font-size="14.00">EditSubmissionComponent</text>
</g>
<!-- EditSubmissionComponent&#45;&gt;AppListingModule -->
<g id="edge3" class="edge">
<title>EditSubmissionComponent&#45;&gt;AppListingModule</title>
<path fill="none" stroke="black" d="M2092,-84.83C2092,-105.57 2092,-136.8 2092,-136.8 2092,-136.8 1228.71,-136.8 1228.71,-136.8"/>
<polygon fill="black" stroke="black" points="1228.71,-133.3 1218.71,-136.8 1228.71,-140.3 1228.71,-133.3"/>
</g>
<!-- EditSubmoduleComponent -->
<g id="node4" class="node">
<title>EditSubmoduleComponent</title>
<polygon fill="#ffffb3" stroke="black" points="1989.44,-84.8 1820.56,-84.8 1820.56,-48.8 1989.44,-48.8 1989.44,-84.8"/>
<text text-anchor="middle" x="1905" y="-62.6" font-family="Times,serif" font-size="14.00">EditSubmoduleComponent</text>
</g>
<!-- EditSubmoduleComponent&#45;&gt;AppListingModule -->
<g id="edge4" class="edge">
<title>EditSubmoduleComponent&#45;&gt;AppListingModule</title>
<path fill="none" stroke="black" d="M1905,-84.91C1905,-104.14 1905,-131.8 1905,-131.8 1905,-131.8 1228.85,-131.8 1228.85,-131.8"/>
<polygon fill="black" stroke="black" points="1228.85,-128.3 1218.85,-131.8 1228.85,-135.3 1228.85,-128.3"/>
</g>
<!-- SubmodulesListComponent -->
<g id="node5" class="node">
<title>SubmodulesListComponent</title>
<polygon fill="#ffffb3" stroke="black" points="1803.34,-84.8 1630.66,-84.8 1630.66,-48.8 1803.34,-48.8 1803.34,-84.8"/>
<text text-anchor="middle" x="1717" y="-62.6" font-family="Times,serif" font-size="14.00">SubmodulesListComponent</text>
</g>
<!-- SubmodulesListComponent&#45;&gt;AppListingModule -->
<g id="edge5" class="edge">
<title>SubmodulesListComponent&#45;&gt;AppListingModule</title>
<path fill="none" stroke="black" d="M1717,-85.1C1717,-103.07 1717,-127.8 1717,-127.8 1717,-127.8 1228.8,-127.8 1228.8,-127.8"/>
<polygon fill="black" stroke="black" points="1228.8,-124.3 1218.8,-127.8 1228.8,-131.3 1228.8,-124.3"/>
</g>
<!-- AppListingRoutingModule -->
<g id="node7" class="node">
<title>AppListingRoutingModule</title>
<polygon fill="#8dd3c7" stroke="black" points="1607.45,-84.8 1604.45,-88.8 1583.45,-88.8 1580.45,-84.8 1438.55,-84.8 1438.55,-48.8 1607.45,-48.8 1607.45,-84.8"/>
<text text-anchor="middle" x="1523" y="-62.6" font-family="Times,serif" font-size="14.00">AppListingRoutingModule</text>
</g>
<!-- AppListingRoutingModule&#45;&gt;AppListingModule -->
<g id="edge6" class="edge">
<title>AppListingRoutingModule&#45;&gt;AppListingModule</title>
<path fill="none" stroke="black" d="M1523,-84.83C1523,-101.2 1523,-122.8 1523,-122.8 1523,-122.8 1228.67,-122.8 1228.67,-122.8"/>
<polygon fill="black" stroke="black" points="1228.67,-119.3 1218.67,-122.8 1228.67,-126.3 1228.67,-119.3"/>
</g>
<!-- CustomMultiSelectComponent -->
<g id="node8" class="node">
<title>CustomMultiSelectComponent</title>
<polygon fill="#8dd3c7" stroke="black" points="1421.22,-84.8 1418.22,-88.8 1397.22,-88.8 1394.22,-84.8 1230.78,-84.8 1230.78,-48.8 1421.22,-48.8 1421.22,-84.8"/>
<text text-anchor="middle" x="1326" y="-62.6" font-family="Times,serif" font-size="14.00">CustomMultiSelectComponent</text>
</g>
<!-- CustomMultiSelectComponent&#45;&gt;AppListingModule -->
<g id="edge7" class="edge">
<title>CustomMultiSelectComponent&#45;&gt;AppListingModule</title>
<path fill="none" stroke="black" d="M1326,-84.99C1326,-99.98 1326,-118.8 1326,-118.8 1326,-118.8 1228.97,-118.8 1228.97,-118.8"/>
<polygon fill="black" stroke="black" points="1228.97,-115.3 1218.97,-118.8 1228.97,-122.3 1228.97,-115.3"/>
</g>
<!-- FilterComponent -->
<g id="node9" class="node">
<title>FilterComponent</title>
<polygon fill="#8dd3c7" stroke="black" points="1212.66,-84.8 1209.66,-88.8 1188.66,-88.8 1185.66,-84.8 1101.34,-84.8 1101.34,-48.8 1212.66,-48.8 1212.66,-84.8"/>
<text text-anchor="middle" x="1157" y="-62.6" font-family="Times,serif" font-size="14.00">FilterComponent</text>
</g>
<!-- FilterComponent&#45;&gt;AppListingModule -->
<g id="edge8" class="edge">
<title>FilterComponent&#45;&gt;AppListingModule</title>
<path fill="none" stroke="black" d="M1157,-84.91C1157,-84.91 1157,-103.79 1157,-103.79"/>
<polygon fill="black" stroke="black" points="1153.5,-103.79 1157,-113.79 1160.5,-103.79 1153.5,-103.79"/>
</g>
<!-- FooterComponent -->
<g id="node10" class="node">
<title>FooterComponent</title>
<polygon fill="#8dd3c7" stroke="black" points="1082.88,-84.8 1079.88,-88.8 1058.88,-88.8 1055.88,-84.8 965.12,-84.8 965.12,-48.8 1082.88,-48.8 1082.88,-84.8"/>
<text text-anchor="middle" x="1024" y="-62.6" font-family="Times,serif" font-size="14.00">FooterComponent</text>
</g>
<!-- FooterComponent&#45;&gt;AppListingModule -->
<g id="edge9" class="edge">
<title>FooterComponent&#45;&gt;AppListingModule</title>
<path fill="none" stroke="black" d="M1024,-84.99C1024,-99.98 1024,-118.8 1024,-118.8 1024,-118.8 1085.17,-118.8 1085.17,-118.8"/>
<polygon fill="black" stroke="black" points="1085.17,-122.3 1095.17,-118.8 1085.17,-115.3 1085.17,-122.3"/>
</g>
<!-- FormsModule -->
<g id="node11" class="node">
<title>FormsModule</title>
<polygon fill="#8dd3c7" stroke="black" points="946.84,-84.8 943.84,-88.8 922.84,-88.8 919.84,-84.8 851.16,-84.8 851.16,-48.8 946.84,-48.8 946.84,-84.8"/>
<text text-anchor="middle" x="899" y="-62.6" font-family="Times,serif" font-size="14.00">FormsModule</text>
</g>
<!-- FormsModule&#45;&gt;AppListingModule -->
<g id="edge10" class="edge">
<title>FormsModule&#45;&gt;AppListingModule</title>
<path fill="none" stroke="black" d="M899,-84.83C899,-101.2 899,-122.8 899,-122.8 899,-122.8 1085.2,-122.8 1085.2,-122.8"/>
<polygon fill="black" stroke="black" points="1085.2,-126.3 1095.2,-122.8 1085.2,-119.3 1085.2,-126.3"/>
</g>
<!-- HeaderComponent -->
<g id="node12" class="node">
<title>HeaderComponent</title>
<polygon fill="#8dd3c7" stroke="black" points="832.75,-84.8 829.75,-88.8 808.75,-88.8 805.75,-84.8 711.25,-84.8 711.25,-48.8 832.75,-48.8 832.75,-84.8"/>
<text text-anchor="middle" x="772" y="-62.6" font-family="Times,serif" font-size="14.00">HeaderComponent</text>
</g>
<!-- HeaderComponent&#45;&gt;AppListingModule -->
<g id="edge11" class="edge">
<title>HeaderComponent&#45;&gt;AppListingModule</title>
<path fill="none" stroke="black" d="M772,-85.1C772,-103.07 772,-127.8 772,-127.8 772,-127.8 1085.14,-127.8 1085.14,-127.8"/>
<polygon fill="black" stroke="black" points="1085.14,-131.3 1095.14,-127.8 1085.14,-124.3 1085.14,-131.3"/>
</g>
<!-- SearchBarComponent -->
<g id="node13" class="node">
<title>SearchBarComponent</title>
<polygon fill="#8dd3c7" stroke="black" points="692.64,-84.8 689.64,-88.8 668.64,-88.8 665.64,-84.8 553.36,-84.8 553.36,-48.8 692.64,-48.8 692.64,-84.8"/>
<text text-anchor="middle" x="623" y="-62.6" font-family="Times,serif" font-size="14.00">SearchBarComponent</text>
</g>
<!-- SearchBarComponent&#45;&gt;AppListingModule -->
<g id="edge12" class="edge">
<title>SearchBarComponent&#45;&gt;AppListingModule</title>
<path fill="none" stroke="black" d="M623,-84.91C623,-104.14 623,-131.8 623,-131.8 623,-131.8 1085.22,-131.8 1085.22,-131.8"/>
<polygon fill="black" stroke="black" points="1085.22,-135.3 1095.22,-131.8 1085.22,-128.3 1085.22,-135.3"/>
</g>
<!-- SubmissionTableComponent -->
<g id="node14" class="node">
<title>SubmissionTableComponent</title>
<polygon fill="#8dd3c7" stroke="black" points="535.05,-84.8 532.05,-88.8 511.05,-88.8 508.05,-84.8 356.95,-84.8 356.95,-48.8 535.05,-48.8 535.05,-84.8"/>
<text text-anchor="middle" x="446" y="-62.6" font-family="Times,serif" font-size="14.00">SubmissionTableComponent</text>
</g>
<!-- SubmissionTableComponent&#45;&gt;AppListingModule -->
<g id="edge13" class="edge">
<title>SubmissionTableComponent&#45;&gt;AppListingModule</title>
<path fill="none" stroke="black" d="M446,-84.83C446,-105.57 446,-136.8 446,-136.8 446,-136.8 1085.15,-136.8 1085.15,-136.8"/>
<polygon fill="black" stroke="black" points="1085.15,-140.3 1095.15,-136.8 1085.15,-133.3 1085.15,-140.3"/>
</g>
<!-- TableLoaderComponent -->
<g id="node15" class="node">
<title>TableLoaderComponent</title>
<polygon fill="#8dd3c7" stroke="black" points="338.34,-84.8 335.34,-88.8 314.34,-88.8 311.34,-84.8 185.66,-84.8 185.66,-48.8 338.34,-48.8 338.34,-84.8"/>
<text text-anchor="middle" x="262" y="-62.6" font-family="Times,serif" font-size="14.00">TableLoaderComponent</text>
</g>
<!-- TableLoaderComponent&#45;&gt;AppListingModule -->
<g id="edge14" class="edge">
<title>TableLoaderComponent&#45;&gt;AppListingModule</title>
<path fill="none" stroke="black" d="M262,-85.09C262,-107.01 262,-140.8 262,-140.8 262,-140.8 1085.13,-140.8 1085.13,-140.8"/>
<polygon fill="black" stroke="black" points="1085.13,-144.3 1095.13,-140.8 1085.13,-137.3 1085.13,-144.3"/>
</g>
<!-- TableViewComponent -->
<g id="node16" class="node">
<title>TableViewComponent</title>
<polygon fill="#8dd3c7" stroke="black" points="167.53,-84.8 164.53,-88.8 143.53,-88.8 140.53,-84.8 24.47,-84.8 24.47,-48.8 167.53,-48.8 167.53,-84.8"/>
<text text-anchor="middle" x="96" y="-62.6" font-family="Times,serif" font-size="14.00">TableViewComponent</text>
</g>
<!-- TableViewComponent&#45;&gt;AppListingModule -->
<g id="edge15" class="edge">
<title>TableViewComponent&#45;&gt;AppListingModule</title>
<path fill="none" stroke="black" d="M96,-85.12C96,-108.46 96,-145.8 96,-145.8 96,-145.8 1084.98,-145.8 1084.98,-145.8"/>
<polygon fill="black" stroke="black" points="1084.98,-149.3 1094.98,-145.8 1084.98,-142.3 1084.98,-149.3"/>
</g>
</g>
</svg>
