<svg width="1500" height="596" viewBox="0 0 1500 596" fill="none" xmlns="http://www.w3.org/2000/svg">
<g clip-path="url(#clip0_1_148)">
<path opacity="0.06" d="M1068.5 241.66C1077.78 236.301 1089.22 236.301 1098.5 241.66L1197.1 298.59C1206.39 303.949 1212.1 313.853 1212.1 324.571V438.429C1212.1 449.147 1206.39 459.051 1197.1 464.41L1098.5 521.34C1089.22 526.699 1077.78 526.699 1068.5 521.34L969.895 464.41C960.613 459.051 954.895 449.147 954.895 438.429V324.571C954.895 313.853 960.613 303.949 969.895 298.59L1068.5 241.66Z" fill="#848484"/>
<circle cx="503" cy="426" r="308" stroke="#FFFCEF" stroke-width="100"/>
<circle cx="1514" cy="478" r="217" stroke="#FFEFEF" stroke-width="100"/>
<path opacity="0.06" d="M-0.0068543 8.6695C9.27867 3.30523 20.7213 3.30524 30.0069 8.66951L148.007 76.8384C157.285 82.1984 163 92.1001 163 102.815V239.185C163 249.9 157.285 259.802 148.007 265.162L30.0069 333.33C20.7213 338.695 9.27866 338.695 -0.00686092 333.33L-118.007 265.162C-127.285 259.802 -133 249.9 -133 239.185V102.815C-133 92.1001 -127.285 82.1984 -118.007 76.8384L-0.0068543 8.6695Z" fill="#1BA93A"/>
</g>
<defs>
<clipPath id="clip0_1_148">
<rect width="1500" height="596" fill="white"/>
</clipPath>
</defs>
</svg>