<!DOCTYPE svg PUBLIC "-//W3C//DTD SVG 1.1//EN" "http://www.w3.org/Graphics/SVG/1.1/DTD/svg11.dtd">
<!-- Uploaded to: SVG Repo, www.svgrepo.com, Transformed by: SVG Repo Mixer Tools -->
<svg width="256px" height="256px" viewBox="0 0 48 48" version="1" xmlns="http://www.w3.org/2000/svg" enable-background="new 0 0 48 48" fill="#ffffff" stroke="#ffffff" stroke-width="0.00048000000000000007">
<g id="SVGRepo_bgCarrier" stroke-width="0"/>
<g id="SVGRepo_tracerCarrier" stroke-linecap="round" stroke-linejoin="round"/>
<g id="SVGRepo_iconCarrier"> <rect x="7" y="31" fill="#ffffff" width="10" height="10"/> <path fill="#ffffff" d="M35.3,19.3l-5.6-5.6c-0.4-0.4-0.4-1,0-1.4l5.6-5.6c0.4-0.4,1-0.4,1.4,0l5.6,5.6c0.4,0.4,0.4,1,0,1.4 l-5.6,5.6C36.3,19.7,35.7,19.7,35.3,19.3z"/> <circle fill="#ffffff" cx="12" cy="13" r="6"/> <circle fill="#ffffff" cx="36" cy="36" r="6"/> <g fill="#ffffff"> <rect x="11" y="24" width="2" height="5"/> <polygon points="12,21 9,25 15,25"/> </g> <g fill="#ffffff"> <rect x="20" y="12" width="5" height="2"/> <polygon points="28,13 24,10 24,16"/> </g> <g fill="#ffffff"> <rect x="35" y="21" width="2" height="5"/> <polygon points="36,29 39,25 33,25"/> </g> </g>
</svg>