<?xml version="1.0" encoding="UTF-8" standalone="no"?>
<!DOCTYPE svg PUBLIC "-//W3C//DTD SVG 1.1//EN"
 "http://www.w3.org/Graphics/SVG/1.1/DTD/svg11.dtd">
<!-- Generated by graphviz version 5.0.0 (20220707.1540)
 -->
<!-- Title: dependencies Pages: 1 -->
<svg width="1010pt" height="174pt"
 viewBox="0.00 0.00 1010.00 173.80" xmlns="http://www.w3.org/2000/svg" xmlns:xlink="http://www.w3.org/1999/xlink">
<g id="graph0" class="graph" transform="scale(1 1) rotate(0) translate(4 169.8)">
<title>dependencies</title>
<polygon fill="white" stroke="transparent" points="-4,4 -4,-169.8 1006,-169.8 1006,4 -4,4"/>
<text text-anchor="middle" x="501" y="-8.2" font-family="sans-serif" font-size="14.00">dependencies</text>
<g id="clust1" class="cluster">
<title>cluster_FormsModule</title>
<polygon fill="none" stroke="black" stroke-dasharray="1,5" points="8,-32.8 8,-157.8 994,-157.8 994,-32.8 8,-32.8"/>
</g>
<g id="clust2" class="cluster">
<title>cluster_FormsModule_declarations</title>
<polygon fill="none" stroke="black" points="528,-40.8 528,-92.8 986,-92.8 986,-40.8 528,-40.8"/>
</g>
<g id="clust6" class="cluster">
<title>cluster_FormsModule_imports</title>
<polygon fill="none" stroke="black" points="16,-40.8 16,-92.8 520,-92.8 520,-40.8 16,-40.8"/>
</g>
<!-- EditFormComponent -->
<g id="node1" class="node">
<title>EditFormComponent</title>
<polygon fill="#ffffb3" stroke="black" points="977.5,-84.8 842.5,-84.8 842.5,-48.8 977.5,-48.8 977.5,-84.8"/>
<text text-anchor="middle" x="910" y="-62.6" font-family="Times,serif" font-size="14.00">EditFormComponent</text>
</g>
<!-- FormsModule -->
<g id="node4" class="node">
<title>FormsModule</title>
<polygon fill="#8dd3c7" stroke="black" points="553.84,-149.8 550.84,-153.8 529.84,-153.8 526.84,-149.8 458.16,-149.8 458.16,-113.8 553.84,-113.8 553.84,-149.8"/>
<text text-anchor="middle" x="506" y="-127.6" font-family="Times,serif" font-size="14.00">FormsModule</text>
</g>
<!-- EditFormComponent&#45;&gt;FormsModule -->
<g id="edge1" class="edge">
<title>EditFormComponent&#45;&gt;FormsModule</title>
<path fill="none" stroke="black" d="M910,-85.08C910,-106.12 910,-137.8 910,-137.8 910,-137.8 563.93,-137.8 563.93,-137.8"/>
<polygon fill="black" stroke="black" points="563.93,-134.3 553.93,-137.8 563.93,-141.3 563.93,-134.3"/>
</g>
<!-- FormBuilderComponent -->
<g id="node2" class="node">
<title>FormBuilderComponent</title>
<polygon fill="#ffffb3" stroke="black" points="824.66,-84.8 671.34,-84.8 671.34,-48.8 824.66,-48.8 824.66,-84.8"/>
<text text-anchor="middle" x="748" y="-62.6" font-family="Times,serif" font-size="14.00">FormBuilderComponent</text>
</g>
<!-- FormBuilderComponent&#45;&gt;FormsModule -->
<g id="edge2" class="edge">
<title>FormBuilderComponent&#45;&gt;FormsModule</title>
<path fill="none" stroke="black" d="M748,-84.82C748,-102.17 748,-125.8 748,-125.8 748,-125.8 563.81,-125.8 563.81,-125.8"/>
<polygon fill="black" stroke="black" points="563.81,-122.3 553.81,-125.8 563.81,-129.3 563.81,-122.3"/>
</g>
<!-- FormsComponent -->
<g id="node3" class="node">
<title>FormsComponent</title>
<polygon fill="#ffffb3" stroke="black" points="653.62,-84.8 536.38,-84.8 536.38,-48.8 653.62,-48.8 653.62,-84.8"/>
<text text-anchor="middle" x="595" y="-62.6" font-family="Times,serif" font-size="14.00">FormsComponent</text>
</g>
<!-- FormsComponent&#45;&gt;FormsModule -->
<g id="edge3" class="edge">
<title>FormsComponent&#45;&gt;FormsModule</title>
<path fill="none" stroke="black" d="M545.06,-84.91C545.06,-84.91 545.06,-103.79 545.06,-103.79"/>
<polygon fill="black" stroke="black" points="541.56,-103.79 545.06,-113.79 548.56,-103.79 541.56,-103.79"/>
</g>
<!-- CustomMultiSelectComponent -->
<g id="node5" class="node">
<title>CustomMultiSelectComponent</title>
<polygon fill="#8dd3c7" stroke="black" points="512.22,-84.8 509.22,-88.8 488.22,-88.8 485.22,-84.8 321.78,-84.8 321.78,-48.8 512.22,-48.8 512.22,-84.8"/>
<text text-anchor="middle" x="417" y="-62.6" font-family="Times,serif" font-size="14.00">CustomMultiSelectComponent</text>
</g>
<!-- CustomMultiSelectComponent&#45;&gt;FormsModule -->
<g id="edge4" class="edge">
<title>CustomMultiSelectComponent&#45;&gt;FormsModule</title>
<path fill="none" stroke="black" d="M485.22,-84.91C485.22,-84.91 485.22,-103.79 485.22,-103.79"/>
<polygon fill="black" stroke="black" points="481.72,-103.79 485.22,-113.79 488.72,-103.79 481.72,-103.79"/>
</g>
<!-- FormsRoutingModule -->
<g id="node6" class="node">
<title>FormsRoutingModule</title>
<polygon fill="#8dd3c7" stroke="black" points="304.46,-84.8 301.46,-88.8 280.46,-88.8 277.46,-84.8 163.54,-84.8 163.54,-48.8 304.46,-48.8 304.46,-84.8"/>
<text text-anchor="middle" x="234" y="-62.6" font-family="Times,serif" font-size="14.00">FormsRoutingModule</text>
</g>
<!-- FormsRoutingModule&#45;&gt;FormsModule -->
<g id="edge5" class="edge">
<title>FormsRoutingModule&#45;&gt;FormsModule</title>
<path fill="none" stroke="black" d="M234,-84.82C234,-102.17 234,-125.8 234,-125.8 234,-125.8 448.31,-125.8 448.31,-125.8"/>
<polygon fill="black" stroke="black" points="448.31,-129.3 458.31,-125.8 448.31,-122.3 448.31,-129.3"/>
</g>
<!-- HeaderComponent -->
<g id="node7" class="node">
<title>HeaderComponent</title>
<polygon fill="#8dd3c7" stroke="black" points="145.75,-84.8 142.75,-88.8 121.75,-88.8 118.75,-84.8 24.25,-84.8 24.25,-48.8 145.75,-48.8 145.75,-84.8"/>
<text text-anchor="middle" x="85" y="-62.6" font-family="Times,serif" font-size="14.00">HeaderComponent</text>
</g>
<!-- HeaderComponent&#45;&gt;FormsModule -->
<g id="edge6" class="edge">
<title>HeaderComponent&#45;&gt;FormsModule</title>
<path fill="none" stroke="black" d="M85,-85.08C85,-106.12 85,-137.8 85,-137.8 85,-137.8 448.12,-137.8 448.12,-137.8"/>
<polygon fill="black" stroke="black" points="448.12,-141.3 458.12,-137.8 448.12,-134.3 448.12,-141.3"/>
</g>
</g>
</svg>
