<svg width="17" height="17" viewBox="0 0 17 17" fill="none" xmlns="http://www.w3.org/2000/svg">
<path d="M2.62873 3.1282H3.12873V2.6282V2.00685C3.12873 1.17495 3.80382 0.5 4.6295 0.5H14.9926C15.8234 0.5 16.5 1.17652 16.5 2.00679V12.3643C16.5 13.1954 15.8233 13.8718 14.9926 13.8718H14.3713H13.8713V14.3718V14.9931C13.8713 15.8236 13.1949 16.5 12.3642 16.5H2.00077C1.17509 16.5 0.5 15.825 0.5 14.9931V4.63567C0.5 3.80306 1.17519 3.1282 2.00077 3.1282H2.62873ZM13.8712 13.1434V13.6434H14.3712H14.9925C15.6986 13.6434 16.2716 13.0697 16.2716 12.3643V2.00679C16.2716 1.30085 15.698 0.728271 14.9925 0.728271H4.62943C3.92396 0.728271 3.35696 1.30477 3.35696 2.00679V2.62814V3.12814H3.85696H12.3641C13.1948 3.12814 13.8712 3.80451 13.8712 4.6356V13.1434ZM12.3642 16.2716C13.0696 16.2716 13.643 15.6989 13.643 14.9931V13.7575V4.6356C13.643 3.93022 13.07 3.35647 12.3642 3.35647H3.24288H2.00077C1.29479 3.35647 0.728293 3.93411 0.728293 4.6356V14.9931C0.728293 15.6951 1.29521 16.2716 2.00077 16.2716H12.3642Z" fill="#F1F0F7" fill-opacity="0.5" stroke="white"/>
</svg>
