<svg width="17" height="17" viewBox="0 0 17 17" fill="none" xmlns="http://www.w3.org/2000/svg">
<path d="M14.9926 0H4.6295C3.52624 0 2.62873 0.900245 2.62873 2.00685V2.6282H2.00077C0.897513 2.6282 0 3.52845 0 4.63567V14.9931C0 16.0998 0.897513 17 2.00077 17H12.3642C13.471 17 14.3713 16.0998 14.3713 14.9931V14.3718H14.9926C16.0994 14.3718 17 13.4716 17 12.3643V2.00679C16.9999 0.900245 16.0994 0 14.9926 0ZM13.143 14.9931C13.143 15.4225 12.7937 15.7716 12.3642 15.7716H2.00077C1.57492 15.7716 1.22829 15.4225 1.22829 14.9931V4.6356C1.22829 4.20618 1.57498 3.85647 2.00077 3.85647H3.24288H12.3642C12.7936 3.85647 13.143 4.20612 13.143 4.6356V13.7575V14.9931ZM15.7716 12.3643C15.7716 12.7937 15.4223 13.1434 14.9925 13.1434H14.3712V4.6356C14.3712 3.52845 13.471 2.62814 12.3641 2.62814H3.85696V2.00679C3.85696 1.57736 4.20365 1.22827 4.62943 1.22827H14.9925C15.4223 1.22827 15.7716 1.57736 15.7716 2.00679V12.3643Z" fill="#5B5670" fill-opacity="0.5"/>
</svg>
