<?xml version="1.0" encoding="utf-8"?>
<!-- Generator: Adobe Illustrator 24.0.1, SVG Export Plug-In . SVG Version: 6.00 Build 0)  -->
<svg version="1.1" xmlns="http://www.w3.org/2000/svg" xmlns:xlink="http://www.w3.org/1999/xlink" x="0px" y="0px"
	 viewBox="0 0 58.6 24.3" style="enable-background:new 0 0 58.6 24.3;" xml:space="preserve">
<style type="text/css">
	.st0{fill:#F7F7F7;}
	.st1{fill:#EEEEEE;}
	.st2{fill:#DDDDDD;}
	.st3{fill:#BBBBBB;}
	.st4{fill:#FDEDD3;}
	.st5{fill:#FFFFFF;}
	.st6{fill:#FF6C0E;}
	.st7{fill:#3B3A3C;}
	.st8{fill:#19D122;}
	.st9{fill:#66AC45;}
	.st10{fill:#206D37;}
	.st11{fill:#12A0DA;}
	.st12{fill:#E63337;}
	.st13{fill:#83C04B;}
	.st14{fill:none;stroke:#FF6C0E;stroke-miterlimit:10;}
</style>
<g id="Layer_4">
</g>
<g id="BACKGROUND">
</g>
<g id="OBJECTS">
	<rect x="-1237.5" y="220.4" class="st0" width="1080" height="462.6"/>
	<rect x="-1305.5" y="-300.2" class="st1" width="48.4" height="48.4"/>
	<rect x="-1305.5" y="-251.8" class="st2" width="48.4" height="48.4"/>
	<rect x="-1305.5" y="-203.4" class="st3" width="48.4" height="48.4"/>
	<rect x="-1305.5" y="-155" class="st4" width="48.4" height="48.4"/>
	<rect x="-1305.5" y="-397" width="48.4" height="48.4"/>
	<rect x="-1305.5" y="-348.6" class="st5" width="48.4" height="48.4"/>
	<rect x="-1353.9" y="-397" class="st6" width="48.4" height="48.4"/>
	<rect x="-1353.9" y="-348.6" class="st7" width="48.4" height="48.4"/>
	<g id="Layer_5">
	</g>
	<g>
		<g>
			<path class="st7" d="M-515.6,612.2c-0.2,4.5-1.6,7-2.4,7c-0.8,0-2.2-2.5-2.4-7H-515.6z M-522.1,610.4c0.1-2.4,0.6-4.8,1.4-6.4
				c-2.7,1-4.6,3.5-5,6.4H-522.1z M-513.8,610.4h3.6c-0.3-3-2.3-5.4-5-6.4C-514.4,605.6-513.9,608-513.8,610.4z M-518,603.4
				c-0.8,0-2.2,2.5-2.4,7h4.7C-515.8,605.9-517.2,603.4-518,603.4z M-503.9,611.6L-503.9,611.6c0,7.9-6.4,14.2-14.2,14.2
				c-7.9,0-14.2-6.4-14.2-14.2v0c0-7.9,6.4-14.2,14.2-14.2C-510.3,597.3-503.9,603.7-503.9,611.6z M-508.3,611.3
				c0-5.3-4.3-9.7-9.7-9.7c-5.3,0-9.7,4.3-9.7,9.7c0,5.3,4.3,9.7,9.7,9.7C-512.7,620.9-508.3,616.6-508.3,611.3z M-522.1,612.2h-3.6
				c0.3,3,2.3,5.4,5,6.4C-521.6,617-522,614.6-522.1,612.2z M-513.8,612.2c-0.1,2.4-0.6,4.8-1.4,6.4c2.7-1,4.6-3.5,5-6.4H-513.8z"/>
			<g>
				<text transform="matrix(1 0 0 1 -495.0176 618.5636)" class="st7" style="font-family:'Roboto-Regular'; font-size:23.9744px;">www.QuaidTech.com</text>
			</g>
		</g>
		<g>
			<path class="st7" d="M-1101.6,597.3L-1101.6,597.3c-7.9,0-14.2,6.4-14.2,14.2c0,7.9,6.4,14.2,14.2,14.2h0
				c7.9,0,14.2-6.4,14.2-14.2C-1087.4,603.7-1093.7,597.3-1101.6,597.3z M-1095.9,619.6c-1.1,1.1-2.6,1.7-4,1.7
				c-1.5,0-2.9-0.6-4-1.7l-5.8-5.8c-1.1-1.1-1.7-2.5-1.7-4c0-1.5,0.6-2.9,1.7-4c0.9-0.9,2.4-0.9,3.2,0l1.9,1.9
				c0.9,0.9,0.9,2.4,0,3.2l-0.3,0.3l3.5,3.5l0.3-0.3c0.9-0.9,2.4-0.9,3.2,0l1.9,1.9C-1095,617.2-1095,618.7-1095.9,619.6z
				 M-1102.5,608.2c0-0.5,0.4-0.9,0.9-0.9c2.3,0,4.2,1.9,4.2,4.2c0,0.5-0.4,0.9-0.9,0.9s-0.9-0.4-0.9-0.9c0-1.3-1.1-2.4-2.4-2.4
				C-1102.1,609.1-1102.5,608.7-1102.5,608.2z M-1094.2,612.4c-0.5,0-0.9-0.4-0.9-0.9c0-3.6-3-6.6-6.6-6.6c-0.5,0-0.9-0.4-0.9-0.9
				c0-0.5,0.4-0.9,0.9-0.9c4.6,0,8.4,3.8,8.4,8.4C-1093.3,612-1093.7,612.4-1094.2,612.4z M-1097.2,617.6c0.2,0.2,0.2,0.5,0,0.7
				c-1.5,1.5-4,1.5-5.5,0l-5.8-5.8c-0.7-0.7-1.1-1.7-1.1-2.7c0-1,0.4-2,1.1-2.7c0.1-0.1,0.2-0.1,0.4-0.1c0.1,0,0.3,0,0.4,0.1
				l1.9,1.9c0.2,0.2,0.2,0.5,0,0.7l-0.9,0.9c-0.2,0.2-0.3,0.4-0.3,0.6c0,0.2,0.1,0.5,0.3,0.6l4.8,4.8c0.3,0.3,0.9,0.3,1.3,0l0.9-0.9
				v0c0.2-0.2,0.5-0.2,0.7,0L-1097.2,617.6z"/>
			<g>
				
					<text transform="matrix(1 0 0 1 -1078.4419 618.5637)" class="st7" style="font-family:'Roboto-Regular'; font-size:23.9744px;">+92 51 844 8182</text>
			</g>
		</g>
		<g>
			<g>
				<text transform="matrix(1 0 0 1 -806.4431 618.5643)" class="st7" style="font-family:'Roboto-Regular'; font-size:23.9744px;">info@quaidtech.com</text>
			</g>
			<path class="st7" d="M-829.6,597.3L-829.6,597.3c-7.9,0-14.2,6.4-14.2,14.2v0c0,7.9,6.4,14.2,14.2,14.2h0
				c7.9,0,14.2-6.4,14.2-14.2v0C-815.4,603.7-821.7,597.3-829.6,597.3z M-819.8,617.5c0,0.5-0.4,0.9-0.9,0.9h-17.8
				c-0.5,0-0.9-0.4-0.9-0.9v-11.8c0-0.5,0.4-0.9,0.9-0.9h17.8c0.5,0,0.9,0.4,0.9,0.9V617.5z M-837.6,616.6h16v-10h-16V616.6z
				 M-834,609.9c0.3-0.4,0.8-0.5,1.2-0.3l3.1,2.1l3.1-2.1c0.4-0.3,1-0.2,1.2,0.3c0.3,0.4,0.2,1-0.3,1.2l-3.6,2.4
				c-0.1,0.1-0.3,0.1-0.5,0.1c-0.2,0-0.3,0-0.5-0.1l-3.6-2.4C-834.1,610.9-834.3,610.3-834,609.9z"/>
		</g>
	</g>
	<g>
		<g>
			<g>
				<path class="st7" d="M-726.3-289.6h13.9v1.4h-6.1v16.1h-1.7v-16.1h-6.1V-289.6z"/>
				<path class="st7" d="M-712.9-278c0,2.3,1.2,5,4.2,5c2.3,0,3.5-1.3,4-3.2h1.5c-0.7,2.9-2.3,4.5-5.5,4.5c-4,0-5.7-3.1-5.7-6.7
					c0-3.3,1.7-6.7,5.7-6.7c4.1,0,5.7,3.6,5.6,7.1H-712.9z M-704.8-279.3c-0.1-2.3-1.5-4.5-4-4.5c-2.5,0-3.9,2.2-4.2,4.5H-704.8z"/>
				<path class="st7" d="M-692.2-280.8c-0.4-1.9-1.6-3-3.6-3c-3,0-4.4,2.7-4.4,5.4c0,2.7,1.5,5.4,4.4,5.4c1.9,0,3.5-1.5,3.7-3.6h1.5
					c-0.4,3-2.4,4.9-5.2,4.9c-3.9,0-6-3.1-6-6.7c0-3.6,2.1-6.7,6-6.7c2.7,0,4.8,1.4,5.1,4.3H-692.2z"/>
				<path class="st7" d="M-688.4-289.6h1.5v7h0c0.6-1.5,2.3-2.5,4-2.5c3.6,0,4.6,1.9,4.6,4.9v8.1h-1.5v-7.9c0-2.2-0.7-3.8-3.2-3.8
					c-2.4,0-3.9,1.9-4,4.3v7.4h-1.5V-289.6z"/>
				<path class="st7" d="M-675.3-284.7h1.5v2.2h0c0.6-1.5,2.3-2.5,4-2.5c3.6,0,4.6,1.9,4.6,4.9v8.1h-1.5v-7.9c0-2.2-0.7-3.8-3.2-3.8
					c-2.4,0-3.9,1.9-4,4.3v7.4h-1.5V-284.7z"/>
				<path class="st7" d="M-650.8-278.4c0,3.6-2.1,6.7-6,6.7c-3.9,0-6-3.1-6-6.7c0-3.6,2.1-6.7,6-6.7
					C-652.9-285.1-650.8-282.1-650.8-278.4z M-661.2-278.4c0,2.7,1.5,5.4,4.4,5.4s4.4-2.7,4.4-5.4c0-2.7-1.5-5.4-4.4-5.4
					S-661.2-281.1-661.2-278.4z"/>
				<path class="st7" d="M-648.5-289.6h1.5v17.5h-1.5V-289.6z"/>
				<path class="st7" d="M-632.6-278.4c0,3.6-2.1,6.7-6,6.7c-3.9,0-6-3.1-6-6.7c0-3.6,2.1-6.7,6-6.7
					C-634.7-285.1-632.6-282.1-632.6-278.4z M-643.1-278.4c0,2.7,1.5,5.4,4.4,5.4s4.4-2.7,4.4-5.4c0-2.7-1.5-5.4-4.4-5.4
					S-643.1-281.1-643.1-278.4z"/>
				<path class="st7" d="M-619.7-273.1c0,3.8-1.5,6.1-5.6,6.1c-2.5,0-5-1.1-5.2-3.8h1.5c0.3,1.9,2,2.5,3.7,2.5
					c2.8,0,4.1-1.7,4.1-4.8v-1.7h0c-0.7,1.5-2.2,2.6-4,2.6c-4,0-5.7-2.9-5.7-6.5c0-3.5,2.1-6.4,5.7-6.4c1.8,0,3.4,1.2,4,2.5h0v-2.2
					h1.5V-273.1z M-621.2-278.6c0-2.5-1.2-5.2-4.1-5.2c-2.9,0-4.2,2.6-4.2,5.2c0,2.5,1.3,5,4.2,5
					C-622.6-273.6-621.2-276-621.2-278.6z"/>
				<path class="st7" d="M-616.7-289.6h1.5v2.5h-1.5V-289.6z M-616.7-284.7h1.5v12.6h-1.5V-284.7z"/>
				<path class="st7" d="M-611.3-278c0,2.3,1.2,5,4.2,5c2.3,0,3.5-1.3,4-3.2h1.5c-0.7,2.9-2.3,4.5-5.5,4.5c-4,0-5.7-3.1-5.7-6.7
					c0-3.3,1.7-6.7,5.7-6.7c4.1,0,5.7,3.6,5.6,7.1H-611.3z M-603.1-279.3c-0.1-2.3-1.5-4.5-4-4.5c-2.5,0-3.9,2.2-4.2,4.5H-603.1z"/>
				<path class="st7" d="M-591.9-281c-0.1-1.9-1.5-2.8-3.3-2.8c-1.4,0-3,0.5-3,2.2c0,1.4,1.6,1.9,2.6,2.1l2.1,0.5
					c1.8,0.3,3.6,1.3,3.6,3.5c0,2.7-2.7,3.8-5.1,3.8c-2.9,0-4.9-1.4-5.2-4.5h1.5c0.1,2.1,1.7,3.2,3.7,3.2c1.4,0,3.5-0.6,3.5-2.4
					c0-1.5-1.4-2-2.8-2.3l-2-0.4c-2-0.5-3.5-1.2-3.5-3.4c0-2.6,2.5-3.6,4.8-3.6c2.5,0,4.5,1.3,4.6,4.1H-591.9z"/>
			</g>
			<path class="st7" d="M-767.3-356.1c-20.9,0-37.8,16.9-37.8,37.8c0,20.9,16.9,37.8,37.8,37.8c3.3,0,6.4-0.4,9.5-1.2v-16.8
				c-3,2.3-6.6,3.6-10.4,3.6c-10.6,0-19.2-10.1-19.2-22.7c0-12.5,8.6-22.7,19.2-22.7c4,0,7.8,1.5,10.9,4l2.2-4h8v53.9
				c10.6-6.7,17.6-18.5,17.6-32C-729.5-339.2-746.4-356.1-767.3-356.1z"/>
			<rect x="-643.9" y="-336" class="st7" width="10.7" height="40.2"/>
			<polygon class="st6" points="-657.7,-336 -663.1,-336 -693.8,-295.8 -680.2,-295.8 -657.7,-325.9 -657.7,-306.5 -666.1,-306.5 
				-674.1,-295.8 -647,-295.8 -647,-295.8 -647,-306.5 -647,-336 			"/>
			<path class="st7" d="M-692.8-302.6c0.1-0.1,0.1-0.2,0.2-0.2c0.1-0.1,0.2-0.3,0.3-0.4c0.1-0.1,0.1-0.1,0.2-0.2
				c0.2-0.2,0.3-0.4,0.4-0.6c0.1-0.1,0.1-0.2,0.2-0.2c0.1-0.2,0.2-0.3,0.3-0.5c0.1-0.1,0.1-0.2,0.2-0.2c0.1-0.2,0.3-0.4,0.4-0.7
				c0,0,0-0.1,0.1-0.1c0.1-0.2,0.2-0.4,0.3-0.6c0-0.1,0.1-0.2,0.1-0.2c0.1-0.2,0.2-0.4,0.3-0.6c0-0.1,0.1-0.1,0.1-0.2
				c0.1-0.2,0.2-0.5,0.3-0.7c0-0.1,0-0.1,0.1-0.2c0.1-0.2,0.1-0.4,0.2-0.6c0-0.1,0.1-0.2,0.1-0.2c0.1-0.3,0.2-0.5,0.2-0.8
				c0,0,0,0,0,0c0.1-0.3,0.1-0.5,0.2-0.8c0-0.1,0-0.2,0-0.2c0-0.2,0.1-0.4,0.1-0.7c0-0.1,0-0.1,0-0.2c0-0.3,0.1-0.6,0.1-0.8
				c0-0.1,0-0.1,0-0.2c0-0.2,0-0.5,0.1-0.7c0-0.1,0-0.2,0-0.2c0-0.3,0-0.6,0-0.9V-336H-699v21.2c0,4.6-3.7,8.3-8.3,8.3
				c-4.6,0-8.3-3.7-8.3-8.3V-336h-10.7v21.2c0,0.3,0,0.6,0,0.9c0,0.1,0,0.2,0,0.2c0,0.2,0,0.5,0.1,0.7c0,0.1,0,0.1,0,0.2
				c0,0.3,0.1,0.6,0.1,0.8c0,0.1,0,0.1,0,0.2c0,0.2,0.1,0.4,0.1,0.7c0,0.1,0,0.2,0,0.2c0.1,0.3,0.1,0.5,0.2,0.8c0,0,0,0,0,0.1
				c0.1,0.3,0.1,0.5,0.2,0.8c0,0.1,0,0.2,0.1,0.2c0.1,0.2,0.1,0.4,0.2,0.6c0,0.1,0,0.1,0.1,0.2c0.1,0.3,0.2,0.5,0.3,0.7
				c0,0.1,0.1,0.1,0.1,0.2c0.1,0.2,0.2,0.4,0.3,0.6c0,0.1,0.1,0.2,0.1,0.2c0.1,0.2,0.2,0.4,0.3,0.6c0,0,0,0.1,0.1,0.1
				c0.1,0.2,0.3,0.4,0.4,0.7c0,0.1,0.1,0.2,0.2,0.2c0.1,0.2,0.2,0.3,0.3,0.5c0.1,0.1,0.1,0.2,0.2,0.2c0.1,0.2,0.3,0.4,0.4,0.6
				c0.1,0.1,0.1,0.1,0.2,0.2c0.1,0.1,0.2,0.3,0.3,0.4c0.1,0.1,0.1,0.2,0.2,0.2c0.1,0.1,0.2,0.3,0.4,0.4c0.1,0.1,0.1,0.2,0.2,0.2
				c0.2,0.2,0.3,0.3,0.5,0.5c0.1,0.1,0.2,0.2,0.2,0.2c0.1,0.1,0.2,0.2,0.3,0.3c0.1,0.1,0.2,0.2,0.2,0.2c0.2,0.2,0.4,0.3,0.5,0.5
				c0.1,0.1,0.2,0.1,0.3,0.2c0.1,0.1,0.2,0.2,0.4,0.3c0.1,0.1,0.2,0.1,0.3,0.2c0.1,0.1,0.3,0.2,0.4,0.3c0.1,0.1,0.2,0.2,0.3,0.2
				c0.2,0.1,0.3,0.2,0.5,0.3c0.1,0.1,0.2,0.1,0.3,0.2c0.1,0.1,0.3,0.2,0.4,0.2c0.1,0.1,0.2,0.1,0.3,0.2c0.2,0.1,0.4,0.2,0.6,0.3
				c2.5,1.2,5.3,1.9,8.3,1.9c3,0,5.8-0.7,8.3-1.9c0.2-0.1,0.4-0.2,0.6-0.3c0.1-0.1,0.2-0.1,0.3-0.2c0.1-0.1,0.3-0.1,0.4-0.2
				c0.1-0.1,0.2-0.1,0.3-0.2c0.2-0.1,0.3-0.2,0.5-0.3c0.1-0.1,0.2-0.2,0.3-0.2c0.1-0.1,0.3-0.2,0.4-0.3c0.1-0.1,0.2-0.1,0.3-0.2
				c0.1-0.1,0.3-0.2,0.4-0.3c0.1-0.1,0.2-0.1,0.3-0.2c0.2-0.2,0.4-0.3,0.5-0.5c0.1-0.1,0.2-0.2,0.2-0.2c0.1-0.1,0.2-0.2,0.3-0.3
				c0.1-0.1,0.2-0.2,0.2-0.2c0.2-0.2,0.3-0.3,0.5-0.5c0.1-0.1,0.1-0.2,0.2-0.2C-693-302.3-692.9-302.5-692.8-302.6z"/>
			<path class="st6" d="M-638.5-351.1c-3,0-5.4,2.4-5.4,5.4c0,3,2.4,5.4,5.4,5.4h5.4v-5.4C-633.2-348.7-635.6-351.1-638.5-351.1z"/>
			<path class="st7" d="M-600.6-351.1v15.1h-9.4c-11.1,0-20.1,9-20.1,20.1c0,11.1,9,20.1,20.1,20.1c11.1,0,20.1-9,20.1-20.1v-0.4
				V-336v-15.1H-600.6z M-610-306.5c-5.2,0-9.4-4.2-9.4-9.4c0-5.2,4.2-9.4,9.4-9.4h9.4v9.4C-600.6-310.7-604.8-306.5-610-306.5z"/>
			<ellipse class="st7" cx="-767.3" cy="-317.6" rx="9.5" ry="13.5"/>
		</g>
	</g>
	<g>
		<g>
			<g>
				<path class="st7" d="M21.4,18.1h3.8v0.4h-1.7v4.4h-0.5v-4.4h-1.7V18.1z"/>
				<path class="st7" d="M25.1,21.3c0,0.6,0.3,1.4,1.1,1.4c0.6,0,0.9-0.4,1.1-0.9h0.4c-0.2,0.8-0.6,1.2-1.5,1.2
					c-1.1,0-1.6-0.8-1.6-1.8c0-0.9,0.5-1.8,1.6-1.8c1.1,0,1.5,1,1.5,1.9H25.1z M27.3,20.9c0-0.6-0.4-1.2-1.1-1.2
					c-0.7,0-1.1,0.6-1.1,1.2H27.3z"/>
				<path class="st7" d="M30.7,20.5c-0.1-0.5-0.4-0.8-1-0.8c-0.8,0-1.2,0.7-1.2,1.5c0,0.7,0.4,1.5,1.2,1.5c0.5,0,0.9-0.4,1-1h0.4
					c-0.1,0.8-0.7,1.3-1.4,1.3c-1.1,0-1.6-0.8-1.6-1.8c0-1,0.6-1.8,1.6-1.8c0.7,0,1.3,0.4,1.4,1.2H30.7z"/>
				<path class="st7" d="M31.8,18.1h0.4V20h0c0.2-0.4,0.6-0.7,1.1-0.7c1,0,1.3,0.5,1.3,1.3v2.2h-0.4v-2.1c0-0.6-0.2-1-0.9-1
					c-0.7,0-1.1,0.5-1.1,1.2v2h-0.4V18.1z"/>
				<path class="st7" d="M35.4,19.4h0.4V20h0c0.2-0.4,0.6-0.7,1.1-0.7c1,0,1.3,0.5,1.3,1.3v2.2h-0.4v-2.1c0-0.6-0.2-1-0.9-1
					c-0.7,0-1.1,0.5-1.1,1.2v2h-0.4V19.4z"/>
				<path class="st7" d="M42,21.2c0,1-0.6,1.8-1.6,1.8c-1.1,0-1.6-0.8-1.6-1.8c0-1,0.6-1.8,1.6-1.8C41.4,19.3,42,20.2,42,21.2z
					 M39.2,21.2c0,0.7,0.4,1.5,1.2,1.5c0.8,0,1.2-0.7,1.2-1.5c0-0.7-0.4-1.5-1.2-1.5C39.6,19.7,39.2,20.4,39.2,21.2z"/>
				<path class="st7" d="M42.7,18.1h0.4v4.8h-0.4V18.1z"/>
				<path class="st7" d="M47,21.2c0,1-0.6,1.8-1.6,1.8c-1.1,0-1.6-0.8-1.6-1.8c0-1,0.6-1.8,1.6-1.8C46.4,19.3,47,20.2,47,21.2z
					 M44.1,21.2c0,0.7,0.4,1.5,1.2,1.5c0.8,0,1.2-0.7,1.2-1.5c0-0.7-0.4-1.5-1.2-1.5C44.5,19.7,44.1,20.4,44.1,21.2z"/>
				<path class="st7" d="M50.5,22.6c0,1-0.4,1.7-1.5,1.7c-0.7,0-1.4-0.3-1.4-1H48c0.1,0.5,0.5,0.7,1,0.7c0.8,0,1.1-0.5,1.1-1.3v-0.5
					h0c-0.2,0.4-0.6,0.7-1.1,0.7c-1.1,0-1.6-0.8-1.6-1.8c0-0.9,0.6-1.7,1.6-1.7c0.5,0,0.9,0.3,1.1,0.7h0v-0.6h0.4V22.6z M50.1,21.1
					c0-0.7-0.3-1.4-1.1-1.4c-0.8,0-1.1,0.7-1.1,1.4c0,0.7,0.4,1.4,1.1,1.4C49.7,22.5,50.1,21.8,50.1,21.1z"/>
				<path class="st7" d="M51.3,18.1h0.4v0.7h-0.4V18.1z M51.3,19.4h0.4v3.4h-0.4V19.4z"/>
				<path class="st7" d="M52.8,21.3c0,0.6,0.3,1.4,1.1,1.4c0.6,0,0.9-0.4,1.1-0.9h0.4c-0.2,0.8-0.6,1.2-1.5,1.2
					c-1.1,0-1.6-0.8-1.6-1.8c0-0.9,0.5-1.8,1.6-1.8c1.1,0,1.5,1,1.5,1.9H52.8z M55,20.9c0-0.6-0.4-1.2-1.1-1.2
					c-0.7,0-1.1,0.6-1.1,1.2H55z"/>
				<path class="st7" d="M58.1,20.5c0-0.5-0.4-0.8-0.9-0.8c-0.4,0-0.8,0.1-0.8,0.6c0,0.4,0.4,0.5,0.7,0.6l0.6,0.1c0.5,0.1,1,0.4,1,1
					c0,0.7-0.7,1-1.4,1c-0.8,0-1.3-0.4-1.4-1.2h0.4c0,0.6,0.5,0.9,1,0.9c0.4,0,0.9-0.2,0.9-0.7c0-0.4-0.4-0.5-0.8-0.6l-0.5-0.1
					c-0.5-0.1-1-0.3-1-0.9c0-0.7,0.7-1,1.3-1c0.7,0,1.2,0.4,1.3,1.1H58.1z"/>
			</g>
			<path class="st7" d="M10.3,0C4.6,0,0,4.6,0,10.3C0,16,4.6,20.6,10.3,20.6c0.9,0,1.8-0.1,2.6-0.3v-4.6c-0.8,0.6-1.8,1-2.8,1
				c-2.9,0-5.2-2.8-5.2-6.2S7.1,4.3,10,4.3c1.1,0,2.1,0.4,3,1.1l0.6-1.1h2.2V19c2.9-1.8,4.8-5,4.8-8.7C20.6,4.6,16,0,10.3,0z"/>
			<rect x="43.9" y="5.5" class="st7" width="2.9" height="11"/>
			<polygon class="st6" points="40.1,5.5 38.7,5.5 30.3,16.4 34,16.4 40.1,8.2 40.1,13.5 37.9,13.5 35.7,16.4 43.1,16.4 43.1,16.4 
				43.1,13.5 43.1,5.5 			"/>
			<path class="st7" d="M30.6,14.6C30.6,14.6,30.6,14.5,30.6,14.6c0.1-0.1,0.1-0.1,0.1-0.2c0,0,0,0,0-0.1c0-0.1,0.1-0.1,0.1-0.2
				c0,0,0,0,0-0.1c0,0,0.1-0.1,0.1-0.1c0,0,0,0,0-0.1c0-0.1,0.1-0.1,0.1-0.2c0,0,0,0,0,0c0-0.1,0.1-0.1,0.1-0.2c0,0,0,0,0-0.1
				c0-0.1,0-0.1,0.1-0.2c0,0,0,0,0-0.1c0-0.1,0.1-0.1,0.1-0.2c0,0,0,0,0-0.1c0-0.1,0-0.1,0.1-0.2c0,0,0,0,0-0.1c0-0.1,0-0.1,0.1-0.2
				c0,0,0,0,0,0c0-0.1,0-0.1,0-0.2c0,0,0,0,0-0.1c0-0.1,0-0.1,0-0.2c0,0,0,0,0-0.1c0-0.1,0-0.2,0-0.2c0,0,0,0,0-0.1
				c0-0.1,0-0.1,0-0.2c0,0,0,0,0-0.1c0-0.1,0-0.2,0-0.2V5.5h-2.9v5.8c0,1.2-1,2.3-2.3,2.3c-1.2,0-2.3-1-2.3-2.3V5.5h-2.9v5.8
				c0,0.1,0,0.2,0,0.2c0,0,0,0,0,0.1c0,0.1,0,0.1,0,0.2c0,0,0,0,0,0.1c0,0.1,0,0.2,0,0.2c0,0,0,0,0,0.1c0,0.1,0,0.1,0,0.2
				c0,0,0,0,0,0.1c0,0.1,0,0.1,0,0.2c0,0,0,0,0,0c0,0.1,0,0.1,0.1,0.2c0,0,0,0,0,0.1c0,0.1,0,0.1,0.1,0.2c0,0,0,0,0,0.1
				c0,0.1,0.1,0.1,0.1,0.2c0,0,0,0,0,0.1c0,0.1,0,0.1,0.1,0.2c0,0,0,0,0,0.1c0,0.1,0.1,0.1,0.1,0.2c0,0,0,0,0,0
				c0,0.1,0.1,0.1,0.1,0.2c0,0,0,0,0,0.1c0,0,0.1,0.1,0.1,0.1c0,0,0,0,0,0.1c0,0.1,0.1,0.1,0.1,0.2c0,0,0,0,0,0.1
				c0,0,0.1,0.1,0.1,0.1c0,0,0,0,0.1,0.1c0,0,0.1,0.1,0.1,0.1c0,0,0,0,0.1,0.1c0,0,0.1,0.1,0.1,0.1c0,0,0,0,0.1,0.1
				c0,0,0.1,0.1,0.1,0.1c0,0,0,0,0.1,0.1c0,0,0.1,0.1,0.1,0.1c0,0,0,0,0.1,0.1c0,0,0.1,0.1,0.1,0.1c0,0,0.1,0,0.1,0.1
				c0,0,0.1,0.1,0.1,0.1c0,0,0.1,0,0.1,0.1c0,0,0.1,0.1,0.1,0.1c0,0,0.1,0,0.1,0.1c0,0,0.1,0,0.1,0.1c0,0,0.1,0,0.1,0
				c0.1,0,0.1,0.1,0.2,0.1c0.7,0.3,1.5,0.5,2.3,0.5c0.8,0,1.6-0.2,2.3-0.5c0.1,0,0.1-0.1,0.2-0.1c0,0,0.1,0,0.1,0c0,0,0.1,0,0.1-0.1
				c0,0,0.1,0,0.1-0.1c0,0,0.1-0.1,0.1-0.1c0,0,0.1,0,0.1-0.1c0,0,0.1-0.1,0.1-0.1c0,0,0.1,0,0.1-0.1c0,0,0.1-0.1,0.1-0.1
				c0,0,0,0,0.1-0.1c0.1,0,0.1-0.1,0.1-0.1c0,0,0,0,0.1-0.1c0,0,0.1-0.1,0.1-0.1c0,0,0,0,0.1-0.1c0,0,0.1-0.1,0.1-0.1
				c0,0,0,0,0.1-0.1C30.5,14.7,30.6,14.6,30.6,14.6z"/>
			<path class="st6" d="M45.4,1.4c-0.8,0-1.5,0.7-1.5,1.5c0,0.8,0.7,1.5,1.5,1.5h1.5V2.8C46.8,2,46.2,1.4,45.4,1.4z"/>
			<path class="st7" d="M55.7,1.4v4.1h-2.6c-3,0-5.5,2.5-5.5,5.5c0,3,2.5,5.5,5.5,5.5c3,0,5.5-2.5,5.5-5.5v-0.1V5.5V1.4H55.7z
				 M53.1,13.5c-1.4,0-2.6-1.1-2.6-2.6s1.1-2.6,2.6-2.6h2.6V11C55.7,12.4,54.5,13.5,53.1,13.5z"/>
			<ellipse class="st7" cx="10.3" cy="10.5" rx="2.6" ry="3.7"/>
		</g>
	</g>
	<g>
		
			<image style="overflow:visible;" width="444" height="75" xlink:href="E:\QT\Dr Arif Hussain\assets\aesthetic-shapes-logo.png"  transform="matrix(0.5673 0 0 0.5673 -1165.4962 -150.3464)">
		</image>
		
			<image style="overflow:visible;" width="444" height="116" xlink:href="E:\QT\AEO\aeo\assets\img\brandlogo.png"  transform="matrix(0.5043 0 0 0.5043 -792.0674 -155.4273)">
		</image>
		
			<image style="overflow:visible;" width="1951" height="635" xlink:href="E:\QT\Harwin\2021\05 may\assets\Harwin-logo.png"  transform="matrix(9.694638e-02 0 0 9.694638e-02 -418.6386 -156.9592)">
		</image>
	</g>
	<g>
		<g>
			<g>
				<rect x="-1158" y="-7.7" class="st8" width="47.4" height="26.4"/>
				<polygon class="st8" points="-1134.3,-21.4 -1158,-7.7 -1134.3,-7.7 -1110.6,-7.7 				"/>
			</g>
			<g>
				
					<rect x="-1121.9" y="-36.5" transform="matrix(0.4999 -0.8661 0.8661 0.4999 -543.9484 -979.2657)" class="st8" width="3.8" height="35.8"/>
				
					<rect x="-1166.9" y="-20.5" transform="matrix(0.866 -0.5 0.5 0.866 -144.6454 -577.0256)" class="st8" width="35.8" height="3.8"/>
			</g>
			<rect x="-1139.6" y="-0.5" class="st8" width="10.6" height="19.1"/>
			<path class="st5" d="M-1125.5-10.9c0.2,0.1,0.5,0.1,0.7,0.3c0.3,0.2,0.2,0.3,0.3,0.5c0.1,0,0.2,0,0.3,0c0.3,0,0.4,0.1,0.6,0.4
				c0.3,0.7,0,0.7-0.2,1c0.2,0.3,0.3,0.1,0.4,0.6l0.7-0.1c0.2,0.2,0.1,0.3,0.4,0.5l1.4,0.6c0.1,0,0.2,0,0.2,0c0.1,0,0.1,0,0.2,0
				c0.2,0,0.3,0,0.5,0.1c0,0.2-0.1,0.3-0.1,0.4c0,0.2,0,0.2,0,0.2c0,0,0,0,0,0c0,0,0,0,0.1,0.2c0.2,0.5-0.1,1.2,0.7,1.3
				c0.3,0.1,0.5,0.2,0.8,0.4c-0.3,0.6-0.6-0.3-0.6,1.5c0,0.7,0.5,0.3,0.7,1.4c0.1,0.4,0.1,0.6,0.2,0.9l0,0.1c-0.6,0-0.3,0.4-0.5,0.4
				c0,0-0.1,0-0.2-0.1c-0.2-0.1-0.2-0.4-0.4-0.7c-0.4,0-0.5,0.2-0.8,0.3l0.1-0.6c-0.3,0.1-0.4,0.3-0.7,0.3c-0.2-0.2-0.2-0.5-0.4-0.6
				c-0.1-0.1-0.1-0.1-0.2-0.1c-0.2,0-0.2,0.2-0.4,0.2c0,0,0,0-0.1,0c-0.3-0.1-0.9-0.8-1-1l-0.3,0.2c0,0,0,0,0,0.1l0,0.1c0,0,0,0,0,0
				c0,0.1,0,0.1-0.1,0.1l-1.1,0c-0.2,0-0.3,0-0.4,0.1c0.2,0.1,0.3,0.2,0.5,0.4c0,1.2-1.6,0.7-2.3,1.2c-0.3,0.2-0.4,0.9-0.5,1.4
				c-0.2,1.1,0.4,0.7-0.6,1.1c0,0.4,0.3,0.3-0.1,0.5c-0.3,0.1-0.4,0.2-0.6,0.3l0,0.7c-0.3,0.2-0.8,0.2-1,0.3c-0.2,0.2-0.3,0.7-0.3,1
				c-1.1,0.5,0.1,0.3-1.5,1.1c-0.6,0.3-0.3,0.2-0.6,0.8c-0.1,0.2-0.2,0.2-0.3,0.4l-0.2,0.4c0,0,0,0,0,0c0,0,0,0,0,0.1
				c-0.3,0.1-0.6,0.1-1,0.1c-0.4,0-0.5,0.2-0.8,0.3c-0.2-0.1-0.3-0.2-0.5-0.3c-0.2-0.1-0.5-0.1-0.8-0.1c-0.3,0.3-0.3,0.4-0.6,0.7
				c-0.3,0.2-0.5,0.2-0.7,0.6c-0.1,0.4-0.1,0.7,0.1,0.9c0.4,0.3,0.6,0.1,0.9,0.3c0.2,0.3-0.7,1,0.1,1.8l0.6-0.1
				c0.1,0.3,0,0.5,0.1,0.7c0,0.2,0.2,0.3,0.3,0.5c0.1,0.3,0,0.4,0.2,0.6c0.2,0.4,0.1,0,0,0.5c0,0.1,0.1,0.1,0.1,0.1c0,0,0,0,0,0
				c0,0,0,0,0.1,0.1c0,0,0,0,0,0c0,0,0,0,0,0c0,0,0,0,0,0.1c-0.2,0.2-0.5,0.4-0.8,0.4l-0.2-0.3c0,0,0,0,0,0c-0.9,0-0.6,0-0.9,0.3
				c0,0,0,0,0,0c-0.4,0-0.6-0.2-0.9-0.3c0,0,0,0-0.1,0c-0.4,0-0.8-0.1-1.2-0.1c-0.3,0.5,0.2,0.4-0.6,0.5l-0.9,0.2l-0.4,0
				c-0.5-0.3-0.6,0.1-0.6-0.8c-0.1-1.6-0.9-1.2-1.2-1.6c-0.3-0.4,0-0.5,0-1.1c-0.3-0.3-0.5-0.4-0.6-0.4c-0.2,0-0.2,0.2-0.6,0.4
				c-0.2,0.1-0.2,0.1-0.2,0.1c0,0,0,0,0,0c0,0-0.1,0-0.3,0.2c-0.3,0-0.4-0.1-0.6-0.2c-0.1,0-0.1,0-0.2,0c-0.3,0-0.3,0.1-0.4,0.1
				c0,0-0.1-0.1-0.3-0.2c-0.1-0.1-0.2-0.1-0.2-0.1c-0.2,0-0.4,0.2-0.6,0.1c-0.1,0-0.3-0.1-0.6-0.3c-0.3,0-0.2,0.1-0.3,0.1
				c-0.1,0-0.2,0-0.4-0.1c-0.1,0-0.1,0-0.2,0c-0.1,0-0.1,0-0.2,0.1l-0.2,0.3c-0.2,0-0.7-0.1-1.1-0.1c-0.5,0-0.9,0-1.1,0.1l-0.2,0.1
				c-0.3-0.2-0.4-0.1-0.6-0.3c-0.1-0.8,0.2-0.9,0.4-1.4c0.2-0.6,0.3-0.8,0.4-0.8c0.1,0,0.2,0.1,0.4,0.2c0-0.6,0.4-0.7,0.8-0.7
				c0.3,0,0.6,0.1,0.9,0.1c0.1-0.3,0-0.4,0.1-0.7c0.1-0.2,0.2-0.2,0.3-0.5c0,0-0.1,0-0.1,0c-0.3,0-0.5,0-0.6,0c-0.1,0-0.1,0-0.2,0
				c-0.1-0.4,0.3-0.6,0.2-1.1c-0.1-0.6-0.2-0.4,0-1.1c-0.1,0-0.2,0-0.3,0c-0.2,0-0.3-0.1-0.5-0.3c-0.3-0.2-0.5-0.2-0.8-0.3
				c-0.2-0.1-0.3-0.3-0.5-0.6c-0.1-0.3-0.3-0.4-0.5-0.6c0.1-0.3,0.1-0.1,0.2-0.4l-0.6-0.8l0-0.3c0.1,0,0.1,0,0.2,0
				c0.6,0,1.4,0.8,1.8,0.9c0.2,0.1,0.4,0.1,0.6,0.1c0.6,0,1.2-0.1,1.8-0.1c0.1,0,0.3,0,0.4,0.1c0.4,0.1,0.5,0.1,0.5,0.1
				c0.1,0,0.1-0.1,0.5-0.2c0.2,0,0.3,0,0.4,0c0.3,0,0.5,0.1,0.7,0.1c0.1,0,0.1,0,0.2,0c0.5-0.1,2.1-0.3,2.3-0.6
				c-0.1-0.3-0.3-0.3-0.1-0.7c0.2-0.5,0.1-0.5,0.2-0.9c0.1-0.4,0.6-0.9,1-1.1c0,0,0.1-0.1,0.3-0.1c0,0,0,0,0,0l0.3,0.2l0.5,0.1
				c0.3,0,0.4,0,0.4-0.4l-0.3-0.1c0.6-0.4,0.4-0.1,1.1-0.8c0.1,0.2,0,0.1,0.3,0.2c0.2-0.1,0.3-0.2,0.4-0.2c0.1,0,0.2,0.2,0.4,0.4
				c0.1,0,0.1,0,0.2,0c0.1,0,0.1,0,0.2,0c0.1-0.1,0.2-0.2,0.3-0.3c0.1-0.1,0.2-0.1,0.2-0.1c0,0,0,0,0.1,0c0,0,0.1,0,0.2,0
				c0-0.3-0.1-0.5-0.1-0.8c0-0.6,0-0.4,0.3-0.7l-0.1-0.4c0.1-0.2,0.1-0.1,0.2-0.2c0.1-0.1,0,0,0.1-0.1c0.3-0.7,0.7,0,1.4-0.6
				c0-0.1,0-0.7-0.2-0.9c-0.3-0.3-0.1,0-0.2-0.3c0-0.1-0.1-0.4-0.1-0.5c0.5,0.2,0.8,0.2,1.3,0.3c0.1,0,0.1,0,0.2,0
				c0.2-0.2-0.1-0.1,0.1-0.3c0.2-0.1,0.3,0,0.5-0.1c0.4-0.2,0-0.5-0.1-0.7c0-0.4,0.9-0.7,1.2-1.4l-0.2-0.3c0.4-0.6,0.2-0.3,0.2-0.9
				c0-0.4-0.3-0.4-0.6-0.7c0.1-0.2,0.3-0.3,0.5-0.5c0.2-0.2,0.2-0.3,0.3-0.2c0,0,0.1,0,0.2,0.1c0-0.5,0.1-0.3,0.5-0.4
				c0.4-0.1,0.1-0.3,0.3-0.5c0.1,0,0.2,0,0.4,0c0.8,0.1,2.2-0.1,2.5-0.1c0,0,0,0,0,0c0.1,0,0.2,0.1,0.4,0.2c0.2,0,0.5,0,1-0.3
				L-1125.5-10.9 M-1125.5-11.4l-0.5,0c-0.1,0-0.2,0-0.3,0c-0.5,0.2-0.7,0.2-0.8,0.2c0,0,0,0-0.1,0c-0.1,0-0.2-0.1-0.3-0.1
				c0,0,0,0-0.1,0c-0.1,0-0.3,0-0.7,0c-0.5,0-1.3,0.1-1.8,0c-0.1,0-0.2,0-0.3,0c0,0,0,0-0.1,0c-0.2,0-0.4,0.1-0.5,0.2
				c-0.1,0.1-0.1,0.2-0.1,0.3c-0.1,0-0.4,0-0.6,0.3c0,0,0,0,0,0.1c-0.2,0-0.3,0.2-0.4,0.2c0,0-0.1,0.1-0.1,0.1c0,0-0.1,0.1-0.1,0.1
				c-0.2,0.1-0.4,0.3-0.5,0.6c-0.1,0.2-0.1,0.4,0,0.5c0.1,0.2,0.3,0.3,0.4,0.4c0,0,0,0,0,0c0,0.2,0,0.3,0,0.4c0,0.1-0.1,0.1-0.1,0.2
				c-0.1,0.2-0.1,0.4,0,0.6l0,0c-0.1,0.2-0.3,0.3-0.5,0.4c-0.3,0.3-0.6,0.5-0.7,1c0,0.1,0,0.1,0,0.2c0,0.1,0,0.1,0.1,0.1
				c-0.1,0-0.1,0-0.2,0.1c-0.1,0-0.2,0.1-0.3,0.2c-0.4,0-0.6-0.1-1-0.2c0,0-0.1,0-0.1,0c-0.1,0-0.2,0-0.3,0.1
				c-0.1,0.1-0.2,0.2-0.2,0.4c0,0.2,0,0.5,0.1,0.7c0,0,0,0.1,0,0.1c0,0.2,0.1,0.3,0.3,0.4c0,0,0,0,0,0c0,0.1,0,0.2,0.1,0.3
				c-0.1,0-0.2,0-0.3,0c-0.3,0-0.8,0-1.1,0.6c0,0,0,0,0,0c-0.1,0.1-0.1,0.1-0.2,0.2c-0.1,0.1-0.1,0.3-0.1,0.4l0,0.1
				c-0.3,0.2-0.3,0.5-0.3,0.9c0,0.1,0,0.3,0.1,0.4c-0.1,0-0.1,0.1-0.2,0.1c0,0-0.1,0.1-0.1,0.1c-0.1-0.1-0.3-0.3-0.5-0.3
				c-0.1,0-0.3,0-0.4,0.1c-0.1-0.1-0.2-0.1-0.3-0.1c0,0,0,0,0,0c-0.1,0-0.3,0-0.4,0.1c-0.3,0.3-0.4,0.4-0.5,0.4
				c-0.1,0.1-0.3,0.1-0.6,0.3c-0.1,0.1-0.1,0.1-0.2,0.2l-0.3-0.1c-0.1,0-0.1,0-0.2-0.1c0,0,0,0,0,0c-0.2,0-0.5,0-0.6,0.2
				c-0.5,0.3-1.1,0.9-1.2,1.4c0,0.2,0,0.3,0,0.4c0,0.1,0,0.2-0.1,0.4c-0.1,0.3-0.1,0.5-0.1,0.7c-0.4,0.1-1.1,0.2-1.7,0.3
				c0,0-0.1,0-0.1,0c-0.1,0-0.2,0-0.3,0c-0.1,0-0.3-0.1-0.5-0.1c-0.2,0-0.4,0-0.6,0c-0.2,0-0.4,0.1-0.5,0.1c-0.1,0-0.2-0.1-0.4-0.1
				c-0.2,0-0.3-0.1-0.5-0.1c-0.3,0-0.7,0-1,0c-0.3,0-0.5,0.1-0.8,0c-0.2,0-0.3,0-0.5-0.1c-0.1,0-0.3-0.2-0.5-0.3
				c-0.5-0.3-1-0.6-1.5-0.7c-0.2,0-0.3,0-0.4,0c-0.2,0.1-0.3,0.2-0.4,0.4l0,0.3c0,0.1,0,0.2,0.1,0.3l0.4,0.5c0,0.1-0.1,0.1-0.1,0.2
				c-0.1,0.2,0,0.4,0.1,0.5c0.1,0.1,0.1,0.1,0.2,0.2c0.1,0.1,0.2,0.1,0.2,0.2c0,0,0,0,0,0l0,0.1c0.1,0.3,0.3,0.6,0.7,0.8
				c0.2,0.1,0.3,0.1,0.4,0.2c0.1,0,0.2,0.1,0.3,0.2c0.1,0,0.1,0.1,0.2,0.1c0.1,0.1,0.2,0.1,0.3,0.2c0,0.1,0,0.2,0.1,0.4
				c0,0.1,0,0.2,0.1,0.3c0,0.1,0,0.2-0.1,0.4c-0.1,0.2-0.1,0.4-0.1,0.7c0,0.2,0.1,0.3,0.3,0.4c0.1,0,0.2,0.1,0.3,0.1
				c0,0,0,0.1,0,0.1c-0.1,0-0.3,0-0.4-0.1c0,0,0,0,0,0c-0.2,0-0.6,0-1,0.3c-0.1,0.1-0.2,0.2-0.2,0.3c-0.2,0-0.5,0-0.7,0.4
				c-0.1,0.1-0.2,0.3-0.3,0.7c0,0.1-0.1,0.2-0.1,0.3c-0.2,0.3-0.3,0.7-0.2,1.3c0,0.1,0.1,0.2,0.2,0.3c0.2,0.2,0.3,0.3,0.5,0.3
				c0.1,0,0.1,0.1,0.2,0.1c0.1,0,0.1,0.1,0.2,0.1c0.1,0,0.2,0,0.4-0.1l0.1-0.1c0.1,0,0.3-0.1,0.8,0c0.4,0,0.8,0.1,1.1,0.1
				c0,0,0,0,0,0c0.2,0,0.3-0.1,0.4-0.2l0.1-0.1c0.2,0,0.4,0.1,0.5,0.1c0.1,0,0.2,0,0.3,0c0.2,0.1,0.4,0.2,0.6,0.2
				c0.3,0,0.4-0.1,0.6-0.1c0,0,0,0,0,0c0.1,0.1,0.1,0.1,0.2,0.1c0.1,0.1,0.2,0.2,0.4,0.2c0.1,0,0.2,0,0.3-0.1c0,0,0.1,0,0.2,0
				c0,0,0,0,0.1,0c0,0,0.1,0,0.2,0c0.1,0,0.3,0.1,0.5,0.1c0,0,0,0,0,0c0.1,0,0.3,0,0.4-0.1c0.1-0.1,0.1-0.1,0.2-0.1
				c0.1,0,0.2-0.1,0.4-0.2c0.1-0.1,0.2-0.2,0.3-0.2c0,0,0,0,0,0c0,0,0,0,0,0.1c-0.1,0.2-0.2,0.6,0.1,1.1c0.2,0.3,0.4,0.3,0.6,0.4
				c0.2,0.1,0.2,0.1,0.3,0.2c0.1,0.1,0.2,0.4,0.2,0.7c0,0.3,0,0.5,0.1,0.7c0.1,0.3,0.4,0.4,0.5,0.4c0.1,0,0.1,0,0.2,0.1
				c0.1,0,0.1,0.1,0.2,0.1l0.4,0c0,0,0.1,0,0.1,0l0.9-0.2c0.3,0,0.4-0.1,0.5-0.1c0.1,0,0.3-0.2,0.4-0.4c0.1,0,0.1,0,0.2,0
				c0.2,0,0.4,0,0.6,0c0,0,0,0,0,0c0.1,0,0.1,0,0.3,0.1c0.2,0.1,0.4,0.2,0.7,0.2c0,0,0,0,0,0c0.2,0,0.3-0.1,0.4-0.2
				c0,0,0.1-0.1,0.1-0.1c0,0,0.1,0,0.1,0l0.1,0.1c0.1,0.2,0.2,0.3,0.4,0.3c0,0,0,0,0,0c0.6,0,1-0.4,1.2-0.6c0.2-0.2,0.2-0.4,0.1-0.6
				c0,0,0-0.1,0-0.1c0,0,0,0,0,0c0.1-0.2,0.1-0.4-0.1-0.5c0,0,0,0-0.1-0.1c0,0,0,0,0,0c0-0.1,0-0.1-0.1-0.2c0-0.1,0-0.2-0.1-0.3
				c-0.1-0.2-0.1-0.3-0.2-0.4c0,0,0-0.1-0.1-0.1c0,0,0-0.1,0-0.2c0-0.1,0-0.3-0.1-0.6c-0.1-0.2-0.2-0.4-0.5-0.4c0,0-0.1,0-0.1,0
				l-0.3,0c0-0.1,0-0.2,0.1-0.5c0.1-0.3,0.3-0.6,0-1c0,0-0.1-0.1-0.1-0.1c-0.2-0.2-0.5-0.2-0.6-0.2c-0.1,0-0.2,0-0.2-0.1
				c-0.1-0.1-0.1-0.2,0-0.4c0-0.1,0.1-0.1,0.2-0.2c0.1,0,0.2-0.1,0.3-0.2c0.3-0.2,0.4-0.4,0.5-0.5c0,0,0,0,0-0.1
				c0.1,0,0.3,0,0.4,0.1c0,0,0.1,0,0.1,0.1c0.1,0.1,0.2,0.1,0.3,0.2c0.1,0,0.1,0,0.2,0c0.1,0,0.1,0,0.2,0c0.2,0,0.3-0.1,0.4-0.2
				c0.1-0.1,0.2-0.1,0.3-0.1c0.1,0,0.2,0,0.3,0c0.3,0,0.6,0,0.9-0.2c0.1,0,0.1-0.1,0.2-0.2c0-0.1,0.1-0.1,0.1-0.2c0,0,0,0,0,0
				l0.1-0.3c0.1-0.1,0.2-0.2,0.3-0.4c0.1-0.2,0.1-0.3,0.1-0.4c0,0,0.1-0.1,0.2-0.1c0.8-0.5,1.1-0.7,1.2-1c0,0,0.1-0.1,0.3-0.1
				c0.2-0.1,0.3-0.2,0.3-0.4c0-0.3,0.1-0.6,0.2-0.7c0,0,0.1,0,0.2,0c0.2,0,0.5-0.1,0.8-0.3c0.1-0.1,0.2-0.3,0.2-0.4l0-0.4
				c0.1,0,0.1-0.1,0.3-0.1c0.2-0.1,0.4-0.2,0.5-0.4c0-0.1,0-0.1,0-0.2c0.2-0.1,0.6-0.2,0.5-0.8c0-0.1,0-0.2,0-0.6l0,0
				c0-0.2,0.1-0.5,0.1-0.7c0.1-0.2,0.1-0.3,0.1-0.3c0.2-0.1,0.5-0.2,0.8-0.2c0.4,0,0.7-0.1,1.1-0.3c0.3-0.2,0.7-0.5,0.7-1.2
				c0,0,0,0,0,0l0.5,0c0,0,0.1,0,0.1,0c0,0,0,0,0,0c0.1,0,0.2-0.1,0.3-0.1c0.3,0.4,0.6,0.6,0.8,0.6c0.1,0,0.1,0,0.1,0
				c0.2,0,0.3,0,0.4-0.1c0.1,0.1,0.1,0.3,0.3,0.4c0.1,0.1,0.2,0.2,0.3,0.2c0,0,0,0,0.1,0c0,0,0,0,0,0c0,0.1,0.1,0.1,0.1,0.2
				c0.1,0.1,0.2,0.1,0.3,0.1c0.1,0,0.1,0,0.2,0c0.1,0,0.2-0.1,0.3-0.1c0,0,0,0,0,0c0.1,0.2,0.2,0.4,0.5,0.6c0.1,0.1,0.2,0.1,0.3,0.1
				c0.1,0,0.5,0,0.6-0.4c0.3,0,0.5-0.2,0.5-0.5l0-0.1c0-0.1,0-0.2-0.1-0.3c-0.1-0.2-0.1-0.3-0.1-0.5c0-0.1,0-0.1,0-0.2
				c-0.1-0.7-0.4-1-0.6-1.2c0,0,0,0-0.1,0c0,0,0,0,0-0.1c0-0.5,0-0.7,0-0.8c0.2-0.1,0.3-0.2,0.5-0.5c0.1-0.2,0.1-0.5-0.1-0.7
				c-0.3-0.2-0.6-0.4-1-0.4c-0.1,0-0.1,0-0.2-0.1c0-0.1,0-0.2-0.1-0.3c0-0.2,0-0.4-0.1-0.6c0,0,0-0.1-0.1-0.2c0,0,0,0,0,0
				c0,0,0,0,0,0c0,0,0,0,0-0.1c0-0.1,0.1-0.2,0.1-0.3c0-0.2-0.1-0.4-0.3-0.5c-0.2-0.1-0.4-0.1-0.6-0.1c0,0-0.1,0-0.1,0
				c0,0-0.1,0-0.1,0c0,0-0.1,0-0.1,0l-1.3-0.5c0,0,0,0,0,0c0-0.1-0.1-0.2-0.2-0.4c-0.1-0.1-0.2-0.1-0.3-0.1c0,0-0.1,0-0.1,0l-0.3,0
				c0,0,0-0.1-0.1-0.1c0.2-0.3,0.2-0.6,0-1.2c-0.3-0.6-0.6-0.7-1-0.7c0,0,0,0,0,0c-0.1-0.1-0.2-0.3-0.4-0.5
				c-0.2-0.1-0.3-0.1-0.5-0.2c-0.1,0-0.2,0-0.2-0.1C-1125.3-11.4-1125.4-11.4-1125.5-11.4L-1125.5-11.4z"/>
			<text transform="matrix(1 0 0 1 -1098.6862 4.6171)" style="fill:#378939; font-family:'MyriadPro-Bold'; font-size:31.7074px;">LAND47.COM</text>
			<g>
				
					<text transform="matrix(1 0 0 1 -1099.2965 18.6483)" style="fill:#378939; font-family:'MyriadPro-Bold'; font-size:10.6623px;"> Pakistan’s First Real Estate 360 VR Portal</text>
			</g>
		</g>
		
			<image style="overflow:visible;" width="329" height="86" xlink:href="E:\QT\Rejuven8 Medical\05 may\assets\logo.png"  transform="matrix(0.6743 0 0 0.6743 -792.0674 -30.3489)">
		</image>
		<g>
			<path class="st9" d="M-348.9-7.3c3.5,0,6.7,0,10.2,0c-1.9,1.9-1.6,4.1-1.7,6.3c0,7,0,14-0.2,21c-0.1,2.4-0.5,4.8-1.2,7
				c-1.4,3.9-4.4,6.4-8.4,7.4c-4.8,1.2-9.6,1.3-14.4-0.1c-5.5-1.6-8.8-5.6-9.3-11.4c-0.2-2.7-0.4-5.4-0.4-8
				c-0.1-5.8-0.1-11.5,0-17.3c0-1.8-0.2-3.4-1.6-4.9c3.4,0,6.7,0,9.9,0c0,0.1,0.1,0.2,0,0.2c-1.3,1.3-1.6,3-1.6,4.8
				c0.1,5.9,0,11.9,0,17.8c0,3.1,0.2,6.2,1.2,9.2c1.3,4,4.4,6.7,8.6,6.8c4,0.1,7.6-1.9,9.2-6.4c1.1-3.1,1.3-6.3,1.4-9.6
				c0.1-6.3,0-12.5,0-18.8C-347-4.8-347.6-6.1-348.9-7.3z"/>
			<path class="st9" d="M-307.7,35.2c-2.1,0-4.2,0-6.2,0c0-0.1-0.1-0.2,0-0.2c2.3-2.6,3-6,4.3-9c3.7-8.8,7.3-17.6,10.9-26.5
				c0.6-1.5,1.2-3,1.8-4.5c0.3-0.8,0.5-1.6-0.6-2.4c2.5,0,4.7,0,6.9,0c0.2,0,0.6,0.4,0.7,0.6c3.1,7.2,6.1,14.4,9.1,21.6
				c2.4,5.7,4.8,11.3,7.3,16.9c0.5,1.2,1.4,2.2,2.1,3.3c-2.8,0-5.8,0-8.8,0c1.1-1.3,0.3-2.5-0.2-3.6c-3-7.6-6.1-15.2-9.2-22.7
				c-1.3-3.1-2.8-6.2-4.3-9.3c-0.1-0.2-0.2-0.4-0.4-0.8c-2.6,6.4-5.2,12.7-7.8,18.9c4-2.8,8.3-4.4,13.1-3.5c0,0.1,0,0.2,0.1,0.3
				c-1,0.2-2.1,0.4-3.1,0.6c-6.1,1.4-10.3,5.3-13.1,10.7c-1.1,2.1-2,4.3-2.9,6.4C-308.5,33.7-308.4,33.8-307.7,35.2z"/>
			<path class="st9" d="M-245-1.2c-2.6-1.9-5-3.2-7.8-3.9c-2.5-0.6-5-0.8-7.5,0.1c-3.8,1.3-5,4.8-2.7,8.2c1.6,2.3,3.8,4,6.1,5.5
				c3,2,6.1,3.8,9.1,5.8c2.9,1.9,5,4.3,5.6,7.8c0.8,4.8-1.2,10-7.2,11.8c-4.1,1.2-8.3,1.3-12.5,1c-2.2-0.1-4.5-0.6-6.7-1
				c-1.8-0.3-2.9-1.5-3-3.4c-0.1-1.6-0.2-3.3-0.2-4.9c0.1,0,0.2-0.1,0.3-0.1c0.2,0.2,0.5,0.5,0.7,0.7c3.2,3.3,7,5.8,11.6,6.6
				c2.8,0.5,5.6,0.2,8.2-1.3c3.2-2,4-5.4,2.1-8.6c-1.5-2.5-3.9-4.2-6.3-5.7c-3.1-2-6.3-3.9-9.4-6c-2-1.3-3.8-3-4.8-5.2
				c-2.6-5.6-0.2-11.2,5.8-13.4c6-2.1,11.9-1.7,17.7,0.6c0.8,0.3,1.1,0.7,1,1.7C-245.1-3.8-245-2.6-245-1.2z"/>
			<path class="st10" d="M-348.6-13.5c35.5,0,70.9,0,106.4,0c0,0.6,0,1.2,0,1.9c-0.4,0-0.8,0-1.2,0c-34.1,0-68.1,0-102.2,0
				C-347.2-11.5-348-12.2-348.6-13.5z"/>
			<path class="st10" d="M-361.6-25.9c-3.5,0-6-2.7-6-6.2c0-3,2.8-6,6.2-5.9c3.2,0.1,6,2.7,6,5.9C-355.4-28.6-358.1-25.9-361.6-25.9
				z"/>
			<path class="st10" d="M-382.8-11.6c-12,0-23.9,0-35.8,0c0-0.6,0-1.2,0-1.9c0.4,0,0.8,0,1.2,0c10.4,0,20.9,0,31.3,0
				C-384.4-13.6-383.6-12.9-382.8-11.6z"/>
			<path class="st9" d="M-241.4,30.2c0-2.8,2.2-5,4.8-5c2.7,0,4.9,2.3,4.9,5.1c0,2.7-2.2,5-4.9,5C-239.3,35.3-241.4,33-241.4,30.2z
				 M-240.8,30.2c0,2.5,1.8,4.5,4.2,4.5c2.4,0,4.3-2,4.3-4.4c0-2.4-1.9-4.4-4.2-4.4C-238.8,25.8-240.8,27.7-240.8,30.2z"/>
			<path class="st9" d="M-378.8,10.6c-0.7-5.5-3-10.1-7.6-13.3c-4.2-2.9-9-4.3-14-4.5c-5.9-0.3-11.8-0.1-17.7-0.1
				c-0.1,0-0.2,0.1-0.4,0.1c0.1,0.2,0.2,0.3,0.3,0.5c1,1.1,1.4,2.3,1.4,3.8c0,11,0,22,0,33c0,1.9,0,3.7-1.9,5.3c0.5,0,0.7,0,0.9,0
				c4.2,0,8.5,0.1,12.7,0c4.7-0.1,9.3-0.3,13.8-1.7c7.9-2.5,11.7-8.2,12.6-15.6C-378.2,15.6-378.5,13-378.8,10.6z M-388,24.3
				c-1,2.6-2.5,5-5.3,6c-1.7,0.6-3.5,1.1-5.3,1.2c-3.6,0.2-7.2,0-10.8,0.1c-0.8,0-0.7-0.4-0.7-0.9c0-2.9,0-5.9,0-8.8
				c0-8.3,0-16.6,0-24.9c0-0.4,0-0.8,0-1.2c5.2-0.1,10.2-0.4,14.9,2.1c4.7,2.5,7.5,6.6,8.6,11.8C-385.5,14.6-386.1,19.6-388,24.3z"
				/>
			<path class="st9" d="M-311.1-5.1c-2.9-1.5-6.2-2-9.4-2.2c-4.8-0.2-9.6-0.1-14.4-0.1c-0.2,0-0.3,0.1-0.6,0.2
				c1.1,0.9,1.7,1.9,1.7,3.3c0,11.8,0,23.7,0,35.5c0,1.2-0.4,2.3-1.3,3.1c-0.1,0.1-0.1,0.2-0.3,0.5c3.4,0,6.6,0,9.9,0
				c-0.1-0.2-0.1-0.3-0.2-0.4c-1.1-1-1.4-2.3-1.4-3.7c0-1.8,0-3.5,0-5.3c0-3.5,0-6.9,0-10.6c2.5,0,4.8,0.1,7.1,0
				c3.7-0.2,7.1-1.3,10.1-3.5C-304.1,7.4-304.8-1.8-311.1-5.1z M-321.9,12.3c-1.7,0-3.3,0-5.1,0c0-5.6,0-11,0-16.5
				c1.6,0,3.2-0.1,4.7,0c1.7,0.2,3.3,0.5,4.9,1.1c2.7,1,3.9,3.2,4.2,5.9C-312.7,8.3-316.4,12.3-321.9,12.3z"/>
			<path class="st9" d="M-234.2,32.7c-1,0.4-1.4-0.2-1.8-0.8c-0.4-0.7-0.8-1.4-1.9-1.1c0,0.6,0,1.3,0,2c-0.3,0-0.6,0.1-0.9,0.1
				c0-1.7,0-3.3,0-5.1c1,0,2.1-0.1,3.1,0c1.2,0.2,1.3,1.7,0.1,2.8C-235.1,31.3-234.7,31.9-234.2,32.7z M-237.8,29.8
				c0.5,0,1.1,0,1.5-0.1c0.2,0,0.3-0.2,0.4-0.4c0-0.1,0-0.3-0.1-0.5c-0.1-0.1-0.2-0.2-0.3-0.2c-0.1,0-0.3,0-0.4,0c-0.3,0-0.7,0-1,0
				C-237.8,29-237.8,29.3-237.8,29.8z"/>
			<g>
				<path class="st10" d="M-341.2-36.9c1.4,3.3,1.3,7.2-0.2,10.7c-0.2,0.5-0.4,0.9-0.6,1.3c-0.2,0.4-0.5,0.9-0.7,1.2
					c-0.3,0.4-0.5,0.8-0.9,1.2l-1,1.1c-0.3,0.4-0.7,0.7-1.1,1c-0.4,0.3-0.7,0.6-1.1,0.9l-1.2,0.8l-0.6,0.4l-0.4,0.3l-0.9,0.5
					c-0.3,0.2-0.5,0.4-0.8,0.6c-0.6,0.4-1,0.9-1.5,1.3c-0.9,1-1.7,2.1-2.4,3.4c-1.3,2.6-2.1,5.8-2.6,9.2c-1.7-3.1-2.1-6.9-1.3-10.6
					c0.4-1.9,1.3-3.7,2.4-5.3c1.2-1.6,2.7-3,4.5-3.9l1.1-0.6c0.3-0.2,0.6-0.4,0.9-0.5c0.6-0.4,1.2-0.8,1.7-1.2
					c1.1-0.8,2-1.9,2.9-3.1C-343.3-30.6-342-33.5-341.2-36.9z"/>
			</g>
			<g>
				<path class="st10" d="M-393.7-17.4c-0.1-1.8,0.2-3.7,0.8-5.5c0.6-1.8,1.5-3.6,3-5.1c1.4-1.6,3.7-2.7,6-2.9
					c2.3-0.2,4.5,0.4,6.3,1.3c1.8,0.9,3.4,2.1,4.8,3.4c1.4,1.3,2.6,2.7,3.7,4.2c2.2,3,3.9,6.1,5,9.6c-2.9-2.2-5.5-4.6-8.1-6.8
					c-2.6-2.2-5.1-4.3-7.7-5.6c-1.3-0.7-2.6-1.1-3.7-1.1c-1.2,0-2.3,0.2-3.5,1c-1.2,0.7-2.3,1.9-3.4,3.1
					C-391.7-20.4-392.7-18.9-393.7-17.4z"/>
			</g>
		</g>
	</g>
	<g>
		
			<image style="overflow:visible;" width="1034" height="311" xlink:href="E:\QT\QT\Social Media\2021\07 jul\assets\t.png"  transform="matrix(0.2505 0 0 0.2505 -1165.4962 80.8155)">
		</image>
		
			<image style="overflow:visible;" width="300" height="95" xlink:href="E:\QT\Al Mudassir\logo.png"  transform="matrix(0.7395 0 0 0.609 -792.0674 87.5966)">
		</image>
		<g>
			<g>
				<g>
					<g>
						<path class="st11" d="M-399.6,125.6c2.1-2.8,7.4-2.9,13.5-0.9c-10.5-7.3-22.2-10-25.7-5.4c-3.6,4.7,3.2,14.7,14.3,21.9
							c3.6,2.4,7.3,4.1,10.7,5.2C-397,139.4-403,130.1-399.6,125.6z"/>
						<path class="st12" d="M-368.2,117.4c-10-0.3-14.3,7.3-14.3,7.3c5.8-2.9,10.6-3.9,12.6-1c3.8,5.5-1.7,15.7-11.9,22.7
							c3.4-1.1,7-2.9,10.7-5.2c3.2-2.1,6-4.3,8.1-6.5l0,0c9-7.8,13.1-25.3,13.1-25.3C-353.8,116.9-358.2,117.6-368.2,117.4z"/>
						
							<ellipse transform="matrix(0.9733 -0.2297 0.2297 0.9733 -34.0829 -80.3573)" class="st12" cx="-362.2" cy="106.2" rx="3.9" ry="4.8"/>
						
							<ellipse transform="matrix(0.7071 -0.7071 0.7071 0.7071 -200.1255 -261.2296)" class="st11" cx="-415.4" cy="111" rx="3.9" ry="4.8"/>
						<path class="st13" d="M-384.3,149.7c0,0-4.2,7.5-4.2,11.5h-1.3c0,0-0.8-3.7-7.3-5.2c-6.5-1.5-16.2-1.3-22.9-10.9
							c0,0-3.2-5-1.4-6.4c1.8-1.4,4.3,1.9,4.6,2.5c0.3,0.6,5.6,9.1,14.5,8.6c0,0-0.4-1.8-4.8-2.9c0,0-4.2-1-3.5-3.6
							c0.7-2.5,9.3,1.4,9.3,1.4s5.5,1.9,10.8,3C-385.2,148.7-384.3,149.7-384.3,149.7z"/>
						<path class="st13" d="M-387,161.2h8.6c0,0,1.3-5.6,10-6.9c12.4-1.8,14.9-4.6,14.9-4.6s8.6-8.3,6.5-10.3c0,0-0.7-0.8-2.7,1.8
							c-2,2.6-4.9,6.5-6.8,7.2s-9.1,3-10.3,1.3c0,0-0.8-1.8,4.9-3.3c0,0,4.9-1,4.6-2.4c0,0-0.3-1.3-4.6,0.1c-4.3,1.4-12,3.3-12,3.3
							s-6.7,1.3-9.9,5.7C-387,157.6-387,161.2-387,161.2z"/>
					</g>
				</g>
				<g>
					<g>
						<path class="st11" d="M-332.9,157.4h2.7v0.6h-1.9v0.9h1.7v0.6h-1.7v1.6h-0.8L-332.9,157.4L-332.9,157.4z"/>
						<path class="st11" d="M-327.3,161.1h-0.8v-3.7h0.8V161.1z"/>
						<path class="st11" d="M-322.4,158.5c-0.1-0.3-0.2-0.4-0.4-0.5c-0.1-0.1-0.3-0.1-0.4-0.1c-0.3,0-0.6,0.1-0.7,0.3
							c-0.2,0.2-0.3,0.6-0.3,1s0.1,0.8,0.3,1c0.2,0.2,0.5,0.3,0.7,0.3c0.3,0,0.5-0.1,0.6-0.2c0.2-0.2,0.3-0.4,0.3-0.6h-0.9v-0.6h1.6
							v2h-0.5l-0.1-0.5c-0.2,0.2-0.3,0.3-0.4,0.4c-0.2,0.1-0.5,0.2-0.8,0.2c-0.5,0-0.9-0.2-1.2-0.5c-0.3-0.4-0.5-0.8-0.5-1.4
							c0-0.6,0.2-1.1,0.5-1.5s0.8-0.6,1.3-0.6c0.5,0,0.9,0.1,1.1,0.4c0.3,0.2,0.5,0.6,0.5,0.9L-322.4,158.5L-322.4,158.5z"/>
						<path class="st11" d="M-319.3,161.1v-3.7h0.8v1.4h1.5v-1.4h0.8v3.7h-0.8v-1.7h-1.5v1.7H-319.3z"/>
						<path class="st11" d="M-311.1,157.4v0.7h-1.1v3.1h-0.8V158h-1.1v-0.7H-311.1z"/>
						<path class="st11" d="M-305,157.4h0.9l1.3,3.7h-0.8l-0.3-0.8h-1.4l-0.3,0.8h-0.8L-305,157.4z M-305,159.7h1l-0.5-1.5
							L-305,159.7z"/>
						<path class="st11" d="M-298.1,158.5c-0.1-0.3-0.2-0.4-0.4-0.5c-0.1-0.1-0.3-0.1-0.4-0.1c-0.3,0-0.6,0.1-0.7,0.3
							c-0.2,0.2-0.3,0.6-0.3,1s0.1,0.8,0.3,1c0.2,0.2,0.5,0.3,0.7,0.3c0.3,0,0.5-0.1,0.6-0.2c0.2-0.2,0.3-0.4,0.3-0.6h-0.9v-0.6h1.6
							v2h-0.5l-0.1-0.5c-0.2,0.2-0.3,0.3-0.4,0.4c-0.2,0.1-0.5,0.2-0.8,0.2c-0.5,0-0.9-0.2-1.2-0.5c-0.3-0.4-0.5-0.8-0.5-1.4
							c0-0.6,0.2-1.1,0.5-1.5s0.8-0.6,1.3-0.6c0.5,0,0.9,0.1,1.1,0.4c0.3,0.2,0.5,0.6,0.5,0.9L-298.1,158.5L-298.1,158.5z"/>
						<path class="st11" d="M-293.9,157.4h0.9l1.3,3.7h-0.8l-0.3-0.8h-1.4l-0.3,0.8h-0.8L-293.9,157.4z M-293.9,159.7h1l-0.5-1.5
							L-293.9,159.7z"/>
						<path class="st11" d="M-288.8,161.1h-0.8v-3.7h0.8V161.1z"/>
						<path class="st11" d="M-286.4,157.4h0.8l1.5,2.6v-2.6h0.7v3.7h-0.8l-1.5-2.7v2.7h-0.7V157.4z"/>
						<path class="st11" d="M-280.4,160c0,0.2,0.1,0.3,0.1,0.4c0.1,0.2,0.4,0.2,0.7,0.2c0.2,0,0.3,0,0.5-0.1
							c0.2-0.1,0.3-0.2,0.3-0.4c0-0.1-0.1-0.2-0.2-0.3c-0.1-0.1-0.3-0.1-0.5-0.2l-0.4-0.1c-0.4-0.1-0.7-0.2-0.8-0.3
							c-0.3-0.2-0.4-0.5-0.4-0.8c0-0.3,0.1-0.6,0.4-0.8c0.3-0.2,0.6-0.3,1.1-0.3c0.4,0,0.7,0.1,1,0.3c0.3,0.2,0.4,0.5,0.5,0.9h-0.7
							c0-0.2-0.1-0.4-0.3-0.5c-0.1-0.1-0.3-0.1-0.5-0.1s-0.4,0-0.5,0.1c-0.1,0.1-0.2,0.2-0.2,0.3c0,0.1,0.1,0.2,0.2,0.3
							c0.1,0,0.2,0.1,0.5,0.2l0.6,0.2c0.3,0.1,0.5,0.2,0.6,0.3c0.2,0.2,0.3,0.4,0.3,0.8s-0.1,0.6-0.4,0.8c-0.3,0.2-0.6,0.3-1.1,0.3
							s-0.9-0.1-1.2-0.3c-0.3-0.2-0.4-0.5-0.4-0.9L-280.4,160L-280.4,160z"/>
						<path class="st11" d="M-273.1,157.4v0.7h-1.1v3.1h-0.8V158h-1.1v-0.7H-273.1z"/>
						<path class="st11" d="M-265.7,157.4c0.3,0.1,0.5,0.2,0.6,0.5c0.1,0.2,0.2,0.4,0.3,0.6c0.1,0.2,0.1,0.4,0.1,0.6
							c0,0.5-0.1,0.9-0.3,1.3c-0.3,0.5-0.7,0.7-1.3,0.7h-1.6v-3.7h1.6C-266,157.4-265.8,157.4-265.7,157.4z M-267.1,158v2.4h0.7
							c0.4,0,0.6-0.2,0.8-0.6c0.1-0.2,0.1-0.4,0.1-0.7c0-0.4-0.1-0.7-0.2-0.9c-0.1-0.2-0.4-0.3-0.7-0.3L-267.1,158L-267.1,158z"/>
						<path class="st11" d="M-261.8,161.1h-0.8v-3.7h0.8V161.1z"/>
						<path class="st11" d="M-258.8,160c0,0.2,0.1,0.3,0.1,0.4c0.1,0.2,0.4,0.2,0.7,0.2c0.2,0,0.3,0,0.5-0.1
							c0.2-0.1,0.3-0.2,0.3-0.4c0-0.1-0.1-0.2-0.2-0.3c-0.1-0.1-0.3-0.1-0.5-0.2l-0.4-0.1c-0.4-0.1-0.7-0.2-0.8-0.3
							c-0.3-0.2-0.4-0.5-0.4-0.8c0-0.3,0.1-0.6,0.4-0.8c0.3-0.2,0.6-0.3,1.1-0.3c0.4,0,0.7,0.1,1,0.3c0.3,0.2,0.4,0.5,0.5,0.9h-0.7
							c0-0.2-0.1-0.4-0.3-0.5c-0.1-0.1-0.3-0.1-0.5-0.1c-0.2,0-0.4,0-0.5,0.1c-0.1,0.1-0.2,0.2-0.2,0.3c0,0.1,0.1,0.2,0.2,0.3
							c0.1,0,0.2,0.1,0.5,0.2l0.6,0.2c0.3,0.1,0.5,0.2,0.6,0.3c0.2,0.2,0.3,0.4,0.3,0.8s-0.1,0.6-0.4,0.8c-0.3,0.2-0.6,0.3-1.1,0.3
							c-0.5,0-0.9-0.1-1.2-0.3c-0.3-0.2-0.4-0.5-0.4-0.9L-258.8,160L-258.8,160z"/>
						<path class="st11" d="M-251.5,158h-2v0.8h1.8v0.6h-1.8v1h2.1v0.7h-2.8v-3.7h2.8V158z"/>
						<path class="st11" d="M-248,157.4h0.9l1.3,3.7h-0.8l-0.3-0.8h-1.4l-0.3,0.8h-0.8L-248,157.4z M-248.1,159.7h1l-0.5-1.5
							L-248.1,159.7z"/>
						<path class="st11" d="M-243.1,160c0,0.2,0.1,0.3,0.1,0.4c0.1,0.2,0.4,0.2,0.7,0.2c0.2,0,0.3,0,0.5-0.1
							c0.2-0.1,0.3-0.2,0.3-0.4c0-0.1-0.1-0.2-0.2-0.3c-0.1-0.1-0.3-0.1-0.5-0.2l-0.4-0.1c-0.4-0.1-0.7-0.2-0.8-0.3
							c-0.3-0.2-0.4-0.5-0.4-0.8c0-0.3,0.1-0.6,0.4-0.8c0.3-0.2,0.6-0.3,1.1-0.3c0.4,0,0.7,0.1,1,0.3c0.3,0.2,0.4,0.5,0.5,0.9h-0.7
							c0-0.2-0.1-0.4-0.3-0.5c-0.1-0.1-0.3-0.1-0.5-0.1s-0.4,0-0.5,0.1c-0.1,0.1-0.2,0.2-0.2,0.3c0,0.1,0.1,0.2,0.2,0.3
							c0.1,0,0.2,0.1,0.5,0.2l0.6,0.2c0.3,0.1,0.5,0.2,0.6,0.3c0.2,0.2,0.3,0.4,0.3,0.8s-0.1,0.6-0.4,0.8c-0.3,0.2-0.6,0.3-1.1,0.3
							c-0.5,0-0.9-0.1-1.2-0.3c-0.3-0.2-0.4-0.5-0.4-0.9L-243.1,160L-243.1,160z"/>
						<path class="st11" d="M-235.8,158h-2v0.8h1.8v0.6h-1.8v1h2.1v0.7h-2.8v-3.7h2.8V158z"/>
					</g>
					<g>
						<g>
							<path class="st12" d="M-339.1,153.1v-12h2.5v4.6h4.7v-4.6h2.5v12h-2.5v-5.4h-4.7v5.4H-339.1z"/>
							<path class="st12" d="M-313.7,152c-0.9,0.9-2.2,1.4-3.9,1.4s-3-0.5-3.9-1.4c-1.2-1.1-1.8-2.8-1.8-5c0-2.2,0.6-3.9,1.8-5
								c0.9-0.9,2.2-1.4,3.9-1.4s3,0.5,3.9,1.4c1.2,1.1,1.8,2.8,1.8,5C-311.9,149.2-312.5,150.9-313.7,152z M-315.3,150.2
								c0.6-0.7,0.9-1.8,0.9-3.1c0-1.4-0.3-2.4-0.9-3.1c-0.6-0.7-1.4-1.1-2.4-1.1c-1,0-1.8,0.4-2.4,1.1c-0.6,0.7-0.9,1.8-0.9,3.1
								c0,1.4,0.3,2.4,0.9,3.1c0.6,0.7,1.4,1.1,2.4,1.1C-316.7,151.3-315.9,151-315.3,150.2z"/>
							<path class="st12" d="M-304.2,149.4c0.1,0.6,0.2,1,0.5,1.2c0.4,0.5,1.1,0.7,2.1,0.7c0.6,0,1.1-0.1,1.5-0.2
								c0.7-0.3,1.1-0.7,1.1-1.4c0-0.4-0.2-0.7-0.5-0.9c-0.4-0.2-0.9-0.4-1.7-0.6l-1.3-0.3c-1.3-0.3-2.2-0.6-2.6-0.9
								c-0.8-0.6-1.2-1.4-1.2-2.6c0-1.1,0.4-2,1.2-2.7s1.9-1.1,3.5-1.1c1.3,0,2.4,0.3,3.3,1c0.9,0.7,1.4,1.7,1.4,2.9h-2.4
								c0-0.7-0.4-1.2-1-1.5c-0.4-0.2-0.9-0.3-1.5-0.3c-0.7,0-1.2,0.1-1.6,0.4s-0.6,0.6-0.6,1.1c0,0.4,0.2,0.7,0.6,1
								c0.3,0.1,0.8,0.3,1.6,0.5l2.1,0.5c0.9,0.2,1.6,0.5,2.1,0.9c0.7,0.6,1.1,1.4,1.1,2.5c0,1.1-0.4,2-1.3,2.7s-2,1.1-3.6,1.1
								c-1.6,0-2.8-0.4-3.7-1.1s-1.4-1.7-1.4-3L-304.2,149.4L-304.2,149.4z"/>
							<path class="st12" d="M-282.8,147.9c-0.7,0.6-1.7,0.9-3,0.9h-2.5v4.3h-2.5v-12h5.2c1.2,0,2.1,0.3,2.9,0.9
								c0.7,0.6,1.1,1.6,1.1,2.9C-281.7,146.3-282.1,147.3-282.8,147.9z M-284.7,143.6c-0.3-0.3-0.8-0.4-1.3-0.4h-2.3v3.5h2.3
								c0.6,0,1-0.1,1.3-0.4c0.3-0.3,0.5-0.7,0.5-1.4C-284.2,144.3-284.4,143.8-284.7,143.6z"/>
							<path class="st12" d="M-273.4,153.1h-2.5v-12h2.5V153.1z"/>
							<path class="st12" d="M-258.3,141.1v2.1h-3.6v9.9h-2.5v-9.9h-3.6v-2.1H-258.3z"/>
							<path class="st12" d="M-250.6,141.1h2.8l4.2,12h-2.7l-0.8-2.5h-4.4l-0.8,2.5h-2.6L-250.6,141.1z M-250.8,148.6h3.1l-1.5-4.7
								L-250.8,148.6z"/>
							<path class="st12" d="M-238,141.1h2.5v9.9h6v2.2h-8.5V141.1z"/>
						</g>
					</g>
					<g>
						<path class="st12" d="M-339.1,132.3l13.1-16.6h-12.8v-4.5h19.5v4.3l-13.3,16.9h13.3v4.5h-19.8V132.3z"/>
						<path class="st12" d="M-295.7,134.5c-1.9,2-4.7,3-8.4,3s-6.5-1-8.4-3c-2.6-2.5-3.9-6-3.9-10.6c0-4.7,1.3-8.2,3.9-10.6
							c1.9-2,4.7-3,8.4-3s6.5,1,8.4,3c2.6,2.4,3.9,5.9,3.9,10.6C-291.8,128.5-293.1,132-295.7,134.5z M-299,130.6
							c1.2-1.6,1.9-3.8,1.9-6.7c0-2.9-0.6-5.1-1.9-6.7c-1.2-1.6-2.9-2.4-5.1-2.4s-3.8,0.8-5.1,2.4c-1.3,1.6-1.9,3.8-1.9,6.7
							s0.6,5.1,1.9,6.7c1.3,1.6,3,2.4,5.1,2.4C-302,133-300.3,132.2-299,130.6z"/>
						<path class="st12" d="M-268.5,113.8c0.8,1.1,1.2,2.4,1.2,3.9c0,1.6-0.4,2.8-1.2,3.8c-0.5,0.5-1.1,1-2,1.5
							c1.3,0.5,2.3,1.2,3,2.3c0.7,1,1,2.3,1,3.8c0,1.5-0.4,2.9-1.1,4.1c-0.5,0.8-1.1,1.5-1.8,2c-0.8,0.6-1.8,1.1-2.9,1.3
							c-1.1,0.2-2.3,0.4-3.6,0.4h-11.6v-25.7h12.4C-272.1,111.2-269.9,112.1-268.5,113.8z M-282.5,115.6v5.7h6.2
							c1.1,0,2-0.2,2.7-0.6c0.7-0.4,1-1.2,1-2.3c0-1.2-0.5-2-1.4-2.4c-0.8-0.3-1.8-0.4-3-0.4L-282.5,115.6L-282.5,115.6z
							 M-282.5,125.5v6.8h6.2c1.1,0,2-0.2,2.6-0.5c1.1-0.6,1.7-1.6,1.7-3.2c0-1.3-0.6-2.3-1.6-2.8c-0.6-0.3-1.5-0.4-2.6-0.4H-282.5z
							"/>
						<path class="st12" d="M-257,136.8h-5.3v-25.7h5.3V136.8z"/>
						<path class="st12" d="M-244.7,111.1h6.1l9.1,25.7h-5.8l-1.7-5.3h-9.5l-1.8,5.3h-5.6L-244.7,111.1z M-245,127.1h6.6l-3.2-10.1
							L-245,127.1z"/>
					</g>
				</g>
			</g>
		</g>
	</g>
	<text transform="matrix(1 0 0 1 -1139.5651 465.3606)" style="font-family:'Montserrat-Light'; font-size:45.4961px;">Found Their Best Fit Results with Us?</text>
	<rect x="-1134.8" y="342.8" class="st6" width="722.1" height="70.5"/>
	<text transform="matrix(1 0 0 1 -1139.5648 330.7659)"><tspan x="0" y="0" style="fill:#005830; font-family:'Montserrat-Regular'; font-size:53.4961px;">Know How</tspan><tspan x="0" y="64.2" class="st5" style="font-family:'Montserrat-SemiBold'; font-size:53.4961px;">   Our Valuable Customers</tspan></text>
	<g>
		<line class="st14" x1="-856.8" y1="-167.2" x2="-856.8" y2="178.5"/>
		<line class="st14" x1="-500.8" y1="-167.2" x2="-500.8" y2="178.5"/>
	</g>
</g>
<g id="DESIGNED_BY_FREEPIK">
</g>
</svg>
