<svg width="25" height="25" viewBox="0 0 25 25" fill="none" xmlns="http://www.w3.org/2000/svg">
<path fill-rule="evenodd" clip-rule="evenodd" d="M23.1264 18.9338C23.442 19.2494 23.9816 19.0248 23.98 18.5785L23.9624 13.6513V5.75658C23.9624 4.3032 22.7842 3.125 21.3309 3.125H9.05016C7.59678 3.125 6.41858 4.3032 6.41858 5.75658V9.375H13.6667C15.3235 9.375 16.6667 10.7181 16.6667 12.375V16.2829H20.4755L23.1264 18.9338Z" fill="#F8F8FB" fill-opacity="0.5"/>
<path d="M23.98 18.5785L23.48 18.5802L23.48 18.5802L23.98 18.5785ZM23.1264 18.9338L23.48 18.5802L23.48 18.5802L23.1264 18.9338ZM23.9624 13.6513L23.4624 13.6513L23.4624 13.6531L23.9624 13.6513ZM6.41858 9.375H5.91858V9.875H6.41858V9.375ZM16.6667 16.2829H16.1667V16.7829H16.6667V16.2829ZM20.4755 16.2829L20.8291 15.9293L20.6826 15.7829H20.4755V16.2829ZM23.48 18.5802L23.48 18.5802L22.7729 19.2873C23.4041 19.9185 24.4832 19.4693 24.48 18.5767L23.48 18.5802ZM23.4624 13.6531L23.48 18.5802L24.48 18.5767L24.4624 13.6495L23.4624 13.6531ZM23.4624 5.75658V13.6513H24.4624V5.75658H23.4624ZM21.3309 3.625C22.5081 3.625 23.4624 4.57934 23.4624 5.75658H24.4624C24.4624 4.02706 23.0604 2.625 21.3309 2.625V3.625ZM9.05016 3.625H21.3309V2.625H9.05016V3.625ZM6.91858 5.75658C6.91858 4.57934 7.87292 3.625 9.05016 3.625V2.625C7.32063 2.625 5.91858 4.02706 5.91858 5.75658H6.91858ZM6.91858 9.375V5.75658H5.91858V9.375H6.91858ZM6.41858 9.875H13.6667V8.875H6.41858V9.875ZM13.6667 9.875C15.0474 9.875 16.1667 10.9943 16.1667 12.375H17.1667C17.1667 10.442 15.5997 8.875 13.6667 8.875V9.875ZM16.1667 12.375V16.2829H17.1667V12.375H16.1667ZM20.4755 15.7829H16.6667V16.7829H20.4755V15.7829ZM23.48 18.5802L20.8291 15.9293L20.122 16.6364L22.7729 19.2873L23.48 18.5802Z" fill="white"/>
<path opacity="0.3" fill-rule="evenodd" clip-rule="evenodd" d="M2.06775 18.75V13.5417C2.06775 12.3911 3.00049 11.4583 4.15108 11.4583H12.4844C13.635 11.4583 14.5677 12.3911 14.5677 13.5417V18.75C14.5677 19.9006 13.635 20.8333 12.4844 20.8333H4.27163L2.94072 22.1072C2.62271 22.4116 2.09499 22.1862 2.09499 21.746V19.0878C2.07707 18.9778 2.06775 18.865 2.06775 18.75ZM6.24998 15.0833C6.24998 14.8072 6.47383 14.5833 6.74998 14.5833H12C12.2761 14.5833 12.5 14.8072 12.5 15.0833V15.125C12.5 15.4011 12.2761 15.625 12 15.625H6.74998C6.47383 15.625 6.24998 15.4011 6.24998 15.125V15.0833ZM9.87498 16.6667C9.59883 16.6667 9.37498 16.8905 9.37498 17.1667V17.2083C9.37498 17.4845 9.59883 17.7083 9.87498 17.7083H12C12.2761 17.7083 12.5 17.4845 12.5 17.2083V17.1667C12.5 16.8905 12.2761 16.6667 12 16.6667H9.87498Z" fill="#FDF8F8"/>
</svg>
