<svg width="25" height="25" viewBox="0 0 25 25" fill="none" xmlns="http://www.w3.org/2000/svg">
<rect width="25" height="25" rx="6" fill="#00A3FF"/>
<path opacity="0.25" d="M13.7209 16.1171C13.8921 14.8672 14.8672 13.8921 16.1171 13.7209C16.834 13.6227 17.6126 13.5417 18.2291 13.5417C18.8456 13.5417 19.6243 13.6227 20.3412 13.7209C21.5911 13.8921 22.5662 14.8672 22.7374 16.1171C22.8355 16.834 22.9166 17.6127 22.9166 18.2292C22.9166 18.8457 22.8355 19.6243 22.7374 20.3412C22.5662 21.5911 21.5911 22.5662 20.3412 22.7374C19.6243 22.8356 18.8456 22.9167 18.2291 22.9167C17.6126 22.9167 16.834 22.8356 16.1171 22.7374C14.8672 22.5662 13.8921 21.5911 13.7209 20.3412C13.6227 19.6243 13.5416 18.8457 13.5416 18.2292C13.5416 17.6127 13.6227 16.834 13.7209 16.1171Z" fill="#FAFCFF"/>
<path opacity="0.25" d="M2.26264 16.1171C2.43381 14.8672 3.40893 13.8921 4.65883 13.7209C5.37571 13.6227 6.15438 13.5417 6.77087 13.5417C7.38737 13.5417 8.16603 13.6227 8.88292 13.7209C10.1328 13.8921 11.1079 14.8672 11.2791 16.1171C11.3773 16.834 11.4584 17.6127 11.4584 18.2292C11.4584 18.8457 11.3773 19.6243 11.2791 20.3412C11.1079 21.5911 10.1328 22.5662 8.88292 22.7374C8.16603 22.8356 7.38737 22.9167 6.77087 22.9167C6.15438 22.9167 5.37571 22.8356 4.65883 22.7374C3.40893 22.5662 2.43381 21.5911 2.26264 20.3412C2.16446 19.6243 2.08337 18.8457 2.08337 18.2292C2.08337 17.6127 2.16446 16.834 2.26264 16.1171Z" fill="#FAFCFF"/>
<path opacity="0.25" d="M13.7209 4.65879C13.8921 3.40889 14.8672 2.43377 16.1171 2.2626C16.834 2.16442 17.6126 2.08333 18.2291 2.08333C18.8456 2.08333 19.6243 2.16442 20.3412 2.2626C21.5911 2.43377 22.5662 3.40889 22.7374 4.65879C22.8355 5.37567 22.9166 6.15434 22.9166 6.77083C22.9166 7.38733 22.8355 8.16599 22.7374 8.88288C22.5662 10.1328 21.5911 11.1079 20.3412 11.2791C19.6243 11.3773 18.8456 11.4583 18.2291 11.4583C17.6126 11.4583 16.834 11.3773 16.1171 11.2791C14.8672 11.1079 13.8921 10.1328 13.7209 8.88288C13.6227 8.16599 13.5416 7.38733 13.5416 6.77083C13.5416 6.15434 13.6227 5.37567 13.7209 4.65879Z" fill="#FAFCFF"/>
<path d="M2.26264 4.65879C2.43381 3.40889 3.40893 2.43377 4.65883 2.2626C5.37571 2.16442 6.15438 2.08333 6.77087 2.08333C7.38737 2.08333 8.16603 2.16442 8.88292 2.2626C10.1328 2.43377 11.1079 3.40889 11.2791 4.65879C11.3773 5.37567 11.4584 6.15434 11.4584 6.77083C11.4584 7.38733 11.3773 8.16599 11.2791 8.88288C11.1079 10.1328 10.1328 11.1079 8.88292 11.2791C8.16603 11.3773 7.38737 11.4583 6.77087 11.4583C6.15438 11.4583 5.37571 11.3773 4.65883 11.2791C3.40893 11.1079 2.43381 10.1328 2.26264 8.88288C2.16446 8.16599 2.08337 7.38733 2.08337 6.77083C2.08337 6.15434 2.16446 5.37567 2.26264 4.65879Z" fill="white"/>
</svg>
