<svg width="28" height="27" viewBox="0 0 28 27" fill="none" xmlns="http://www.w3.org/2000/svg">
<path d="M23.3583 17.1299C23.4821 16.8504 23.7651 16.6689 24.0749 16.6678H24.1787C26.0652 16.6678 27.6 15.1823 27.6 13.3564C27.6 11.5306 26.0652 10.0451 24.1787 10.0451H23.9871C23.7213 10.0441 23.4778 9.91408 23.3341 9.70476C23.3182 9.62874 23.2939 9.55439 23.2614 9.48302C23.1312 9.19763 23.1917 8.86931 23.4156 8.64522L23.4767 8.58606C23.4785 8.58449 23.4801 8.58287 23.4817 8.58126C24.1275 7.95549 24.483 7.12374 24.4824 6.23925C24.4819 5.35627 24.1267 4.52624 23.4822 3.90152C23.4805 3.89985 23.4788 3.89823 23.4772 3.89656C22.831 3.27189 21.9725 2.92802 21.0593 2.92802C21.0587 2.92802 21.058 2.92802 21.0574 2.92802C20.1435 2.92849 19.2845 3.27341 18.6392 3.89875L18.5753 3.96063C18.3438 4.1772 18.0046 4.23585 17.7097 4.1099C17.706 4.10839 17.7023 4.10682 17.6987 4.10531C17.4099 3.98552 17.2224 3.71156 17.2212 3.41177V3.31128C17.2212 1.48548 15.6864 0 13.7999 0C11.9134 0 10.3787 1.48548 10.3787 3.31128V3.49676C10.3776 3.75408 10.2433 3.98974 10.027 4.12873C9.94845 4.14413 9.87163 4.16771 9.79789 4.19917C9.50308 4.32517 9.16379 4.26652 8.93227 4.0499L8.86618 3.98588C8.22001 3.36121 7.36156 3.01734 6.44839 3.01734C6.44774 3.01734 6.44699 3.01734 6.44639 3.01734C5.53253 3.01781 4.67354 3.36273 4.02591 3.99027C3.38006 4.61598 3.02466 5.44773 3.0252 6.33222C3.02569 7.21672 3.38206 8.04805 4.02817 8.67266L4.09205 8.73449C4.31587 8.95857 4.37646 9.28685 4.24633 9.57229C4.23679 9.59311 4.22806 9.61418 4.21992 9.63552C4.10866 9.92822 3.83045 10.1231 3.50922 10.1344H3.42119C1.53481 10.1344 0 11.6198 0 13.4456C0 15.2715 1.53481 16.757 3.42136 16.7569H3.61294C3.92721 16.7581 4.21016 16.9395 4.33393 17.219C4.33549 17.2226 4.33711 17.2261 4.33867 17.2296C4.46886 17.515 4.40827 17.8433 4.18439 18.0675L4.12052 18.1292C4.11906 18.1307 4.1176 18.1322 4.1161 18.1336C3.47165 18.7591 3.11706 19.59 3.11754 20.4734C3.11803 21.3579 3.4744 22.1893 4.12095 22.8143C4.12251 22.8159 4.12413 22.8175 4.12574 22.819C5.46067 24.1066 7.62888 24.1044 8.96068 22.8139L9.02461 22.752C9.25608 22.5355 9.59531 22.4767 9.89017 22.6028C9.91163 22.6119 9.93341 22.6204 9.95546 22.6283C10.2579 22.736 10.4593 23.0053 10.4709 23.3162V23.4013C10.4709 25.2272 12.0057 26.7127 13.8922 26.7127C15.7787 26.7127 17.3135 25.2272 17.3135 23.4014V23.2161C17.3148 22.9119 17.5022 22.638 17.791 22.5182C17.7947 22.5166 17.7983 22.5151 17.8019 22.5136C18.0968 22.3876 18.436 22.4462 18.6676 22.6629L18.7337 22.7268C19.3798 23.3515 20.2383 23.6954 21.1515 23.6954C21.1521 23.6954 21.1529 23.6954 21.1535 23.6954C22.0674 23.6949 22.9264 23.35 23.574 22.7225C24.9071 21.4307 24.9059 19.3299 23.5718 18.04L23.5078 17.9782C23.2841 17.7541 23.2235 17.4258 23.3536 17.1403C23.3552 17.1369 23.3568 17.1334 23.3583 17.1299ZM21.9171 19.4907C21.9199 19.4935 21.9228 19.4963 21.9257 19.4991L21.9953 19.5665C22.46 20.0159 22.4605 20.7475 21.9944 21.1991C21.7695 21.4171 21.4703 21.5372 21.152 21.5373C21.1518 21.5373 21.1516 21.5373 21.1513 21.5373C20.8333 21.5373 20.5343 21.4176 20.3079 21.1987L20.2388 21.1318C20.2359 21.1289 20.2329 21.1262 20.23 21.1234C19.3443 20.2849 18.0404 20.0551 16.9066 20.5371C15.8037 20.9972 15.0884 22.0447 15.0835 23.2117V23.4014C15.0835 24.0373 14.5491 24.5546 13.892 24.5546C13.2351 24.5546 12.7006 24.0373 12.7006 23.4014V23.301C12.7006 23.2926 12.7005 23.2842 12.7003 23.2758C12.6714 22.0803 11.9104 21.0395 10.7582 20.6149C9.63067 20.148 8.34038 20.3809 7.46182 21.2126C7.45891 21.2154 7.456 21.2182 7.45309 21.221L7.38344 21.2884C6.9192 21.7382 6.16328 21.7387 5.69845 21.2893C5.6971 21.288 5.6957 21.2867 5.69441 21.2855C5.47064 21.068 5.34741 20.7794 5.3472 20.4724C5.34698 20.1644 5.47081 19.8747 5.6957 19.6568C5.69699 19.6556 5.69823 19.6543 5.69953 19.6531L5.76626 19.5885C5.76918 19.5856 5.77209 19.5828 5.77494 19.58C6.64116 18.7229 6.87861 17.4609 6.38079 16.3635C5.90545 15.296 4.82307 14.6036 3.6172 14.5989H3.42114C2.76419 14.5989 2.22971 14.0816 2.22971 13.4457C2.22971 12.8099 2.76424 12.2926 3.42114 12.2926H3.52496C3.53364 12.2926 3.54237 12.2924 3.55105 12.2922C4.78631 12.2643 5.86162 11.5277 6.30031 10.4125C6.78266 9.32128 6.54213 8.07257 5.68276 7.22225C5.67991 7.21943 5.677 7.21661 5.67408 7.21379L5.60449 7.14639C5.37933 6.92867 5.25524 6.63916 5.25507 6.33113C5.25486 6.02315 5.37868 5.73348 5.60541 5.51378C5.83036 5.29585 6.12948 5.17575 6.44774 5.17559C6.44801 5.17559 6.44817 5.17559 6.44844 5.17559C6.76649 5.17559 7.06551 5.29538 7.29186 5.51425L7.36107 5.58119C7.36393 5.584 7.36689 5.58682 7.3698 5.58959C8.20087 6.37636 9.40028 6.62721 10.482 6.25683C10.5842 6.24415 10.6844 6.21781 10.7796 6.17831C11.8858 5.71945 12.6037 4.67029 12.6085 3.50119V3.31144C12.6085 2.6756 13.143 2.15831 13.8 2.15831C14.4569 2.15831 14.9915 2.67566 14.9915 3.31149V3.41626C14.9962 4.57904 15.7116 5.62663 16.8146 6.08675C17.9486 6.56872 19.2523 6.33874 20.1379 5.50037C20.1408 5.49761 20.1437 5.49479 20.1467 5.49197L20.2163 5.42461C20.4412 5.20669 20.7404 5.08658 21.0586 5.08643C21.0589 5.08643 21.0591 5.08643 21.0593 5.08643C21.3763 5.08643 21.6746 5.20549 21.8993 5.4218C21.9006 5.42305 21.9019 5.42425 21.9031 5.4255C22.1283 5.64322 22.2524 5.93273 22.2526 6.24076C22.2528 6.54796 22.1297 6.83679 21.906 7.05451C21.9049 7.05555 21.9038 7.0566 21.9027 7.05769L21.8335 7.12468C21.8306 7.12745 21.8278 7.13026 21.8248 7.13313C21.0119 7.93749 20.7528 9.0984 21.1354 10.1453C21.1486 10.2443 21.1758 10.3413 21.2166 10.4334C21.6907 11.5041 22.7747 12.1989 23.9826 12.2035H24.1786C24.8356 12.2035 25.3701 12.7208 25.3701 13.3567C25.3701 13.9925 24.8356 14.5099 24.1786 14.5099H24.0705C22.8691 14.5145 21.7867 15.2069 21.3113 16.2744C20.8134 17.3715 21.0509 18.6336 21.9171 19.4907Z" fill="#ADAAB7"/>
<path d="M13.7999 8.92761C11.2776 8.92761 9.22546 10.9137 9.22546 13.355C9.22546 15.7963 11.2776 17.7824 13.7999 17.7824C16.3223 17.7824 18.3744 15.7963 18.3744 13.355C18.3744 10.9137 16.3222 8.92761 13.7999 8.92761ZM13.7999 15.6242C12.5071 15.6242 11.4553 14.6063 11.4553 13.355C11.4553 12.1037 12.5071 11.0857 13.7999 11.0857C15.0928 11.0857 16.1446 12.1037 16.1446 13.355C16.1446 14.6062 15.0928 15.6242 13.7999 15.6242Z" fill="#ADAAB7"/>
</svg>
